<?xml version="1.0" encoding="UTF-8" standalone="no"?>
<!DOCTYPE svg PUBLIC "-//W3C//DTD SVG 1.1//EN"
 "http://www.w3.org/Graphics/SVG/1.1/DTD/svg11.dtd">
<!-- Generated by graphviz version 2.43.0 (0)
 -->
<!-- Title: counter1bit Pages: 1 -->
<svg width="505pt" height="981pt"
 viewBox="0.00 0.00 504.54 981.00" xmlns="http://www.w3.org/2000/svg" xmlns:xlink="http://www.w3.org/1999/xlink">
<g id="graph0" class="graph" transform="scale(1 1) rotate(0) translate(4 977)">
<title>counter1bit</title>
<polygon fill="white" stroke="transparent" points="-4,4 -4,-977 500.54,-977 500.54,4 -4,4"/>
<text text-anchor="middle" x="248.27" y="-7.8" font-family="Times,serif" font-size="14.00">counter1bit</text>
<!-- n11 -->
<g id="node1" class="node">
<title>n11</title>
<polygon fill="none" stroke="black" points="188.77,-816.54 188.77,-831.46 172.96,-842 150.59,-842 134.77,-831.46 134.77,-816.54 150.59,-806 172.96,-806 188.77,-816.54"/>
<text text-anchor="middle" x="161.77" y="-820.3" font-family="Times,serif" font-size="14.00">clk</text>
</g>
<!-- c19 -->
<g id="node6" class="node">
<title>c19</title>
<polygon fill="none" stroke="black" points="371.04,-815.5 371.04,-884.5 485.04,-884.5 485.04,-815.5 371.04,-815.5"/>
<text text-anchor="middle" x="384.54" y="-869.3" font-family="Times,serif" font-size="14.00">A</text>
<polyline fill="none" stroke="black" points="371.04,-861.5 398.04,-861.5 "/>
<text text-anchor="middle" x="384.54" y="-846.3" font-family="Times,serif" font-size="14.00">B</text>
<polyline fill="none" stroke="black" points="371.04,-838.5 398.04,-838.5 "/>
<text text-anchor="middle" x="384.54" y="-823.3" font-family="Times,serif" font-size="14.00">Y</text>
<polyline fill="none" stroke="black" points="398.04,-815.5 398.04,-884.5 "/>
<text text-anchor="middle" x="431.04" y="-853.8" font-family="Times,serif" font-size="14.00">$48.u1</text>
<text text-anchor="middle" x="431.04" y="-838.8" font-family="Times,serif" font-size="14.00">NAND</text>
<polyline fill="none" stroke="black" points="464.04,-815.5 464.04,-884.5 "/>
<text text-anchor="middle" x="474.54" y="-846.3" font-family="Times,serif" font-size="14.00"> </text>
</g>
<!-- n11&#45;&gt;c19 -->
<g id="edge6" class="edge">
<title>n11:e&#45;&gt;c19:w</title>
<path fill="none" stroke="black" d="M189.77,-824C267.24,-824 287.4,-847.81 359.95,-849.86"/>
<polygon fill="black" stroke="black" points="360,-853.36 370.04,-850 360.09,-846.36 360,-853.36"/>
</g>
<!-- n12 -->
<g id="node2" class="node">
<title>n12</title>
<polygon fill="none" stroke="black" points="201.06,-124.54 201.06,-139.46 178.05,-150 145.5,-150 122.48,-139.46 122.48,-124.54 145.5,-114 178.05,-114 201.06,-124.54"/>
<text text-anchor="middle" x="161.77" y="-128.3" font-family="Times,serif" font-size="14.00">count</text>
</g>
<!-- c17 -->
<g id="node4" class="node">
<title>c17</title>
<polygon fill="none" stroke="black" points="366.54,-23.5 366.54,-92.5 489.54,-92.5 489.54,-23.5 366.54,-23.5"/>
<text text-anchor="middle" x="380.04" y="-77.3" font-family="Times,serif" font-size="14.00">A</text>
<polyline fill="none" stroke="black" points="366.54,-69.5 393.54,-69.5 "/>
<text text-anchor="middle" x="380.04" y="-54.3" font-family="Times,serif" font-size="14.00">B</text>
<polyline fill="none" stroke="black" points="366.54,-46.5 393.54,-46.5 "/>
<text text-anchor="middle" x="380.04" y="-31.3" font-family="Times,serif" font-size="14.00">Y</text>
<polyline fill="none" stroke="black" points="393.54,-23.5 393.54,-92.5 "/>
<text text-anchor="middle" x="431.04" y="-61.8" font-family="Times,serif" font-size="14.00">$648.u1</text>
<text text-anchor="middle" x="431.04" y="-46.8" font-family="Times,serif" font-size="14.00">NAND</text>
<polyline fill="none" stroke="black" points="468.54,-23.5 468.54,-92.5 "/>
<text text-anchor="middle" x="479.04" y="-54.3" font-family="Times,serif" font-size="14.00"> </text>
</g>
<!-- n12&#45;&gt;c17 -->
<g id="edge7" class="edge">
<title>n12:e&#45;&gt;c17:w</title>
<path fill="none" stroke="black" d="M201.77,-132C274.23,-132 287.83,-85.67 354.77,-81.33"/>
<polygon fill="black" stroke="black" points="355.16,-84.82 365.04,-81 354.94,-77.82 355.16,-84.82"/>
</g>
<!-- n12&#45;&gt;c17 -->
<g id="edge8" class="edge">
<title>n12:e&#45;&gt;c17:w</title>
<path fill="none" stroke="black" d="M201.77,-132C261.16,-132 269.49,-101.58 323.54,-77 338.4,-70.24 343.08,-62.06 354.92,-59.12"/>
<polygon fill="black" stroke="black" points="355.49,-62.58 365.04,-58 354.72,-55.62 355.49,-62.58"/>
</g>
<!-- c26 -->
<g id="node13" class="node">
<title>c26</title>
<polygon fill="none" stroke="black" points="371.04,-111.5 371.04,-180.5 485.04,-180.5 485.04,-111.5 371.04,-111.5"/>
<text text-anchor="middle" x="384.54" y="-165.3" font-family="Times,serif" font-size="14.00">A</text>
<polyline fill="none" stroke="black" points="371.04,-157.5 398.04,-157.5 "/>
<text text-anchor="middle" x="384.54" y="-142.3" font-family="Times,serif" font-size="14.00">B</text>
<polyline fill="none" stroke="black" points="371.04,-134.5 398.04,-134.5 "/>
<text text-anchor="middle" x="384.54" y="-119.3" font-family="Times,serif" font-size="14.00">Y</text>
<polyline fill="none" stroke="black" points="398.04,-111.5 398.04,-180.5 "/>
<text text-anchor="middle" x="431.04" y="-149.8" font-family="Times,serif" font-size="14.00">$48.u8</text>
<text text-anchor="middle" x="431.04" y="-134.8" font-family="Times,serif" font-size="14.00">NAND</text>
<polyline fill="none" stroke="black" points="464.04,-111.5 464.04,-180.5 "/>
<text text-anchor="middle" x="474.54" y="-142.3" font-family="Times,serif" font-size="14.00"> </text>
</g>
<!-- n12&#45;&gt;c26 -->
<g id="edge9" class="edge">
<title>n12:e&#45;&gt;c26:w</title>
<path fill="none" stroke="black" d="M201.77,-132C273.3,-132 293.17,-144.72 359.85,-145.91"/>
<polygon fill="black" stroke="black" points="360.01,-149.41 370.04,-146 360.07,-142.41 360.01,-149.41"/>
</g>
<!-- c27 -->
<g id="node14" class="node">
<title>c27</title>
<polygon fill="none" stroke="black" points="371.04,-199.5 371.04,-268.5 485.04,-268.5 485.04,-199.5 371.04,-199.5"/>
<text text-anchor="middle" x="384.54" y="-253.3" font-family="Times,serif" font-size="14.00">A</text>
<polyline fill="none" stroke="black" points="371.04,-245.5 398.04,-245.5 "/>
<text text-anchor="middle" x="384.54" y="-230.3" font-family="Times,serif" font-size="14.00">B</text>
<polyline fill="none" stroke="black" points="371.04,-222.5 398.04,-222.5 "/>
<text text-anchor="middle" x="384.54" y="-207.3" font-family="Times,serif" font-size="14.00">Y</text>
<polyline fill="none" stroke="black" points="398.04,-199.5 398.04,-268.5 "/>
<text text-anchor="middle" x="431.04" y="-237.8" font-family="Times,serif" font-size="14.00">$48.u9</text>
<text text-anchor="middle" x="431.04" y="-222.8" font-family="Times,serif" font-size="14.00">NAND</text>
<polyline fill="none" stroke="black" points="464.04,-199.5 464.04,-268.5 "/>
<text text-anchor="middle" x="474.54" y="-230.3" font-family="Times,serif" font-size="14.00"> </text>
</g>
<!-- n12&#45;&gt;c27 -->
<g id="edge10" class="edge">
<title>n12:e&#45;&gt;c27:w</title>
<path fill="none" stroke="black" d="M201.77,-132C260.45,-132 271.21,-156.46 323.54,-183 341.53,-192.12 345.08,-205.56 359.85,-209.72"/>
<polygon fill="black" stroke="black" points="359.69,-213.23 370.04,-211 360.56,-206.28 359.69,-213.23"/>
</g>
<!-- n13 -->
<g id="node3" class="node">
<title>n13</title>
<polygon fill="none" stroke="black" points="188.77,-941.54 188.77,-956.46 172.96,-967 150.59,-967 134.77,-956.46 134.77,-941.54 150.59,-931 172.96,-931 188.77,-941.54"/>
<text text-anchor="middle" x="161.77" y="-945.3" font-family="Times,serif" font-size="14.00">rst</text>
</g>
<!-- c18 -->
<g id="node5" class="node">
<title>c18</title>
<polygon fill="none" stroke="black" points="359.54,-903.5 359.54,-972.5 496.54,-972.5 496.54,-903.5 359.54,-903.5"/>
<text text-anchor="middle" x="373.04" y="-957.3" font-family="Times,serif" font-size="14.00">A</text>
<polyline fill="none" stroke="black" points="359.54,-949.5 386.54,-949.5 "/>
<text text-anchor="middle" x="373.04" y="-934.3" font-family="Times,serif" font-size="14.00">B</text>
<polyline fill="none" stroke="black" points="359.54,-926.5 386.54,-926.5 "/>
<text text-anchor="middle" x="373.04" y="-911.3" font-family="Times,serif" font-size="14.00">Y</text>
<polyline fill="none" stroke="black" points="386.54,-903.5 386.54,-972.5 "/>
<text text-anchor="middle" x="431.04" y="-941.8" font-family="Times,serif" font-size="14.00">$48.u0.u1</text>
<text text-anchor="middle" x="431.04" y="-926.8" font-family="Times,serif" font-size="14.00">NAND</text>
<polyline fill="none" stroke="black" points="475.54,-903.5 475.54,-972.5 "/>
<text text-anchor="middle" x="486.04" y="-934.3" font-family="Times,serif" font-size="14.00"> </text>
</g>
<!-- n13&#45;&gt;c18 -->
<g id="edge11" class="edge">
<title>n13:e&#45;&gt;c18:w</title>
<path fill="none" stroke="black" d="M189.77,-949C261.87,-949 282.04,-959.9 349.27,-960.92"/>
<polygon fill="black" stroke="black" points="349.52,-964.43 359.54,-961 349.57,-957.43 349.52,-964.43"/>
</g>
<!-- n13&#45;&gt;c18 -->
<g id="edge12" class="edge">
<title>n13:e&#45;&gt;c18:w</title>
<path fill="none" stroke="black" d="M189.77,-949C261.84,-949 282.07,-939.01 349.27,-938.07"/>
<polygon fill="black" stroke="black" points="349.57,-941.57 359.54,-938 349.52,-934.57 349.57,-941.57"/>
</g>
<!-- c20 -->
<g id="node7" class="node">
<title>c20</title>
<polygon fill="none" stroke="black" points="371.04,-287.5 371.04,-356.5 485.04,-356.5 485.04,-287.5 371.04,-287.5"/>
<text text-anchor="middle" x="384.54" y="-341.3" font-family="Times,serif" font-size="14.00">A</text>
<polyline fill="none" stroke="black" points="371.04,-333.5 398.04,-333.5 "/>
<text text-anchor="middle" x="384.54" y="-318.3" font-family="Times,serif" font-size="14.00">B</text>
<polyline fill="none" stroke="black" points="371.04,-310.5 398.04,-310.5 "/>
<text text-anchor="middle" x="384.54" y="-295.3" font-family="Times,serif" font-size="14.00">Y</text>
<polyline fill="none" stroke="black" points="398.04,-287.5 398.04,-356.5 "/>
<text text-anchor="middle" x="431.04" y="-325.8" font-family="Times,serif" font-size="14.00">$48.u2</text>
<text text-anchor="middle" x="431.04" y="-310.8" font-family="Times,serif" font-size="14.00">NAND</text>
<polyline fill="none" stroke="black" points="464.04,-287.5 464.04,-356.5 "/>
<text text-anchor="middle" x="474.54" y="-318.3" font-family="Times,serif" font-size="14.00"> </text>
</g>
<!-- c21 -->
<g id="node8" class="node">
<title>c21</title>
<polygon fill="none" stroke="black" points="371.04,-375.5 371.04,-444.5 485.04,-444.5 485.04,-375.5 371.04,-375.5"/>
<text text-anchor="middle" x="384.54" y="-429.3" font-family="Times,serif" font-size="14.00">A</text>
<polyline fill="none" stroke="black" points="371.04,-421.5 398.04,-421.5 "/>
<text text-anchor="middle" x="384.54" y="-406.3" font-family="Times,serif" font-size="14.00">B</text>
<polyline fill="none" stroke="black" points="371.04,-398.5 398.04,-398.5 "/>
<text text-anchor="middle" x="384.54" y="-383.3" font-family="Times,serif" font-size="14.00">Y</text>
<polyline fill="none" stroke="black" points="398.04,-375.5 398.04,-444.5 "/>
<text text-anchor="middle" x="431.04" y="-413.8" font-family="Times,serif" font-size="14.00">$48.u3</text>
<text text-anchor="middle" x="431.04" y="-398.8" font-family="Times,serif" font-size="14.00">NAND</text>
<polyline fill="none" stroke="black" points="464.04,-375.5 464.04,-444.5 "/>
<text text-anchor="middle" x="474.54" y="-406.3" font-family="Times,serif" font-size="14.00"> </text>
</g>
<!-- c22 -->
<g id="node9" class="node">
<title>c22</title>
<polygon fill="none" stroke="black" points="371.04,-727.5 371.04,-796.5 485.04,-796.5 485.04,-727.5 371.04,-727.5"/>
<text text-anchor="middle" x="384.54" y="-781.3" font-family="Times,serif" font-size="14.00">A</text>
<polyline fill="none" stroke="black" points="371.04,-773.5 398.04,-773.5 "/>
<text text-anchor="middle" x="384.54" y="-758.3" font-family="Times,serif" font-size="14.00">B</text>
<polyline fill="none" stroke="black" points="371.04,-750.5 398.04,-750.5 "/>
<text text-anchor="middle" x="384.54" y="-735.3" font-family="Times,serif" font-size="14.00">Y</text>
<polyline fill="none" stroke="black" points="398.04,-727.5 398.04,-796.5 "/>
<text text-anchor="middle" x="431.04" y="-765.8" font-family="Times,serif" font-size="14.00">$48.u4</text>
<text text-anchor="middle" x="431.04" y="-750.8" font-family="Times,serif" font-size="14.00">NAND</text>
<polyline fill="none" stroke="black" points="464.04,-727.5 464.04,-796.5 "/>
<text text-anchor="middle" x="474.54" y="-758.3" font-family="Times,serif" font-size="14.00"> </text>
</g>
<!-- c23 -->
<g id="node10" class="node">
<title>c23</title>
<polygon fill="none" stroke="black" points="371.04,-639.5 371.04,-708.5 485.04,-708.5 485.04,-639.5 371.04,-639.5"/>
<text text-anchor="middle" x="384.54" y="-693.3" font-family="Times,serif" font-size="14.00">A</text>
<polyline fill="none" stroke="black" points="371.04,-685.5 398.04,-685.5 "/>
<text text-anchor="middle" x="384.54" y="-670.3" font-family="Times,serif" font-size="14.00">B</text>
<polyline fill="none" stroke="black" points="371.04,-662.5 398.04,-662.5 "/>
<text text-anchor="middle" x="384.54" y="-647.3" font-family="Times,serif" font-size="14.00">Y</text>
<polyline fill="none" stroke="black" points="398.04,-639.5 398.04,-708.5 "/>
<text text-anchor="middle" x="431.04" y="-677.8" font-family="Times,serif" font-size="14.00">$48.u5</text>
<text text-anchor="middle" x="431.04" y="-662.8" font-family="Times,serif" font-size="14.00">NAND</text>
<polyline fill="none" stroke="black" points="464.04,-639.5 464.04,-708.5 "/>
<text text-anchor="middle" x="474.54" y="-670.3" font-family="Times,serif" font-size="14.00"> </text>
</g>
<!-- c24 -->
<g id="node11" class="node">
<title>c24</title>
<polygon fill="none" stroke="black" points="371.04,-551.5 371.04,-620.5 485.04,-620.5 485.04,-551.5 371.04,-551.5"/>
<text text-anchor="middle" x="384.54" y="-605.3" font-family="Times,serif" font-size="14.00">A</text>
<polyline fill="none" stroke="black" points="371.04,-597.5 398.04,-597.5 "/>
<text text-anchor="middle" x="384.54" y="-582.3" font-family="Times,serif" font-size="14.00">B</text>
<polyline fill="none" stroke="black" points="371.04,-574.5 398.04,-574.5 "/>
<text text-anchor="middle" x="384.54" y="-559.3" font-family="Times,serif" font-size="14.00">Y</text>
<polyline fill="none" stroke="black" points="398.04,-551.5 398.04,-620.5 "/>
<text text-anchor="middle" x="431.04" y="-589.8" font-family="Times,serif" font-size="14.00">$48.u6</text>
<text text-anchor="middle" x="431.04" y="-574.8" font-family="Times,serif" font-size="14.00">NAND</text>
<polyline fill="none" stroke="black" points="464.04,-551.5 464.04,-620.5 "/>
<text text-anchor="middle" x="474.54" y="-582.3" font-family="Times,serif" font-size="14.00"> </text>
</g>
<!-- c25 -->
<g id="node12" class="node">
<title>c25</title>
<polygon fill="none" stroke="black" points="371.04,-463.5 371.04,-532.5 485.04,-532.5 485.04,-463.5 371.04,-463.5"/>
<text text-anchor="middle" x="384.54" y="-517.3" font-family="Times,serif" font-size="14.00">A</text>
<polyline fill="none" stroke="black" points="371.04,-509.5 398.04,-509.5 "/>
<text text-anchor="middle" x="384.54" y="-494.3" font-family="Times,serif" font-size="14.00">B</text>
<polyline fill="none" stroke="black" points="371.04,-486.5 398.04,-486.5 "/>
<text text-anchor="middle" x="384.54" y="-471.3" font-family="Times,serif" font-size="14.00">Y</text>
<polyline fill="none" stroke="black" points="398.04,-463.5 398.04,-532.5 "/>
<text text-anchor="middle" x="431.04" y="-501.8" font-family="Times,serif" font-size="14.00">$48.u7</text>
<text text-anchor="middle" x="431.04" y="-486.8" font-family="Times,serif" font-size="14.00">NAND</text>
<polyline fill="none" stroke="black" points="464.04,-463.5 464.04,-532.5 "/>
<text text-anchor="middle" x="474.54" y="-494.3" font-family="Times,serif" font-size="14.00"> </text>
</g>
<!-- n1 -->
<g id="node15" class="node">
<title>n1</title>
<polygon fill="none" stroke="black" points="161.77,-68 58.88,-50 161.77,-32 264.66,-50 161.77,-68"/>
<text text-anchor="middle" x="161.77" y="-46.3" font-family="Times,serif" font-size="14.00">$0\count[0:0]</text>
</g>
<!-- n1&#45;&gt;c17 -->
<g id="edge1" class="edge">
<title>n1:e&#45;&gt;c17:w</title>
<path fill="none" stroke="black" d="M265.77,-50C306.73,-50 318.54,-37.36 354.72,-35.29"/>
<polygon fill="black" stroke="black" points="355.14,-38.78 365.04,-35 354.95,-31.78 355.14,-38.78"/>
</g>
<!-- n1&#45;&gt;c20 -->
<g id="edge2" class="edge">
<title>n1:e&#45;&gt;c20:w</title>
<path fill="none" stroke="black" d="M265.77,-50C301.22,-50 306.53,-73.9 323.54,-105 347.89,-149.49 319.96,-320.09 360.34,-342.55"/>
<polygon fill="black" stroke="black" points="359.49,-345.95 370.04,-345 361.2,-339.16 359.49,-345.95"/>
</g>
<!-- n10 -->
<g id="node16" class="node">
<title>n10</title>
<polygon fill="none" stroke="black" points="161.77,-896 80.16,-878 161.77,-860 243.38,-878 161.77,-896"/>
<text text-anchor="middle" x="161.77" y="-874.3" font-family="Times,serif" font-size="14.00">$48.not_R</text>
</g>
<!-- n10&#45;&gt;c18 -->
<g id="edge3" class="edge">
<title>n10:e&#45;&gt;c18:w</title>
<path fill="none" stroke="black" d="M244.77,-878C294.81,-878 304.74,-910.25 349.45,-914.53"/>
<polygon fill="black" stroke="black" points="349.39,-918.03 359.54,-915 349.72,-911.04 349.39,-918.03"/>
</g>
<!-- n10&#45;&gt;c19 -->
<g id="edge4" class="edge">
<title>n10:e&#45;&gt;c19:w</title>
<path fill="none" stroke="black" d="M244.77,-878C296.9,-878 312.37,-873.62 359.77,-873.06"/>
<polygon fill="black" stroke="black" points="360.06,-876.56 370.04,-873 360.02,-869.56 360.06,-876.56"/>
</g>
<!-- n10&#45;&gt;c22 -->
<g id="edge5" class="edge">
<title>n10:e&#45;&gt;c22:w</title>
<path fill="none" stroke="black" d="M244.77,-878C281.78,-878 295.47,-875.12 323.54,-851 354.35,-824.53 330.63,-772.52 359.77,-763.39"/>
<polygon fill="black" stroke="black" points="360.6,-766.8 370.04,-762 359.67,-759.87 360.6,-766.8"/>
</g>
<!-- n2 -->
<g id="node17" class="node">
<title>n2</title>
<polygon fill="none" stroke="black" points="161.77,-612 25.7,-594 161.77,-576 297.84,-594 161.77,-612"/>
<text text-anchor="middle" x="161.77" y="-590.3" font-family="Times,serif" font-size="14.00">$48.C_nand_not_R</text>
</g>
<!-- n2&#45;&gt;c19 -->
<g id="edge13" class="edge">
<title>n2:e&#45;&gt;c19:w</title>
<path fill="none" stroke="black" d="M298.77,-594C403.36,-594 271.39,-811.34 359.81,-826.2"/>
<polygon fill="black" stroke="black" points="359.8,-829.71 370.04,-827 360.35,-822.73 359.8,-829.71"/>
</g>
<!-- n2&#45;&gt;c24 -->
<g id="edge14" class="edge">
<title>n2:e&#45;&gt;c24:w</title>
<path fill="none" stroke="black" d="M298.77,-594C326.91,-594 336.07,-587.77 359.76,-586.3"/>
<polygon fill="black" stroke="black" points="360.15,-589.79 370.04,-586 359.94,-582.8 360.15,-589.79"/>
</g>
<!-- n2&#45;&gt;c25 -->
<g id="edge15" class="edge">
<title>n2:e&#45;&gt;c25:w</title>
<path fill="none" stroke="black" d="M298.77,-594C348.18,-594 321.39,-511.03 360.08,-499.36"/>
<polygon fill="black" stroke="black" points="360.61,-502.82 370.04,-498 359.66,-495.88 360.61,-502.82"/>
</g>
<!-- n3 -->
<g id="node18" class="node">
<title>n3</title>
<polygon fill="none" stroke="black" points="161.77,-450 0.23,-432 161.77,-414 323.32,-432 161.77,-450"/>
<text text-anchor="middle" x="161.77" y="-428.3" font-family="Times,serif" font-size="14.00">$48.D_nand_Feedback</text>
</g>
<!-- n3&#45;&gt;c20 -->
<g id="edge16" class="edge">
<title>n3:e&#45;&gt;c20:w</title>
<path fill="none" stroke="black" d="M323.54,-432C382.25,-432 316.71,-315.11 359.89,-300.49"/>
<polygon fill="black" stroke="black" points="360.66,-303.92 370.04,-299 359.64,-296.99 360.66,-303.92"/>
</g>
<!-- n3&#45;&gt;c21 -->
<g id="edge17" class="edge">
<title>n3:e&#45;&gt;c21:w</title>
<path fill="none" stroke="black" d="M323.54,-432C340.34,-432 346.89,-432.66 359.85,-432.91"/>
<polygon fill="black" stroke="black" points="360.01,-436.41 370.04,-433 360.08,-429.41 360.01,-436.41"/>
</g>
<!-- n4 -->
<g id="node19" class="node">
<title>n4</title>
<polygon fill="none" stroke="black" points="161.77,-504 70.78,-486 161.77,-468 252.76,-486 161.77,-504"/>
<text text-anchor="middle" x="161.77" y="-482.3" font-family="Times,serif" font-size="14.00">$48.nand_1</text>
</g>
<!-- n4&#45;&gt;c21 -->
<g id="edge18" class="edge">
<title>n4:e&#45;&gt;c21:w</title>
<path fill="none" stroke="black" d="M253.77,-486C287.02,-486 297.76,-479.99 323.54,-459 349.97,-437.49 335.84,-396.85 359.84,-388.52"/>
<polygon fill="black" stroke="black" points="360.67,-391.93 370.04,-387 359.64,-385.01 360.67,-391.93"/>
</g>
<!-- n4&#45;&gt;c22 -->
<g id="edge19" class="edge">
<title>n4:e&#45;&gt;c22:w</title>
<path fill="none" stroke="black" d="M253.77,-486C287.02,-486 302.5,-487.26 323.54,-513 360.01,-557.6 314.88,-758.46 360.12,-782.62"/>
<polygon fill="black" stroke="black" points="359.5,-786.07 370.04,-785 361.14,-779.26 359.5,-786.07"/>
</g>
<!-- n5 -->
<g id="node20" class="node">
<title>n5</title>
<polygon fill="none" stroke="black" points="161.77,-703 70.78,-685 161.77,-667 252.76,-685 161.77,-703"/>
<text text-anchor="middle" x="161.77" y="-681.3" font-family="Times,serif" font-size="14.00">$48.nand_2</text>
</g>
<!-- n5&#45;&gt;c22 -->
<g id="edge20" class="edge">
<title>n5:e&#45;&gt;c22:w</title>
<path fill="none" stroke="black" d="M253.77,-685C307.19,-685 312.56,-732.46 359.97,-738.39"/>
<polygon fill="black" stroke="black" points="359.85,-741.89 370.04,-739 360.27,-734.91 359.85,-741.89"/>
</g>
<!-- n5&#45;&gt;c23 -->
<g id="edge21" class="edge">
<title>n5:e&#45;&gt;c23:w</title>
<path fill="none" stroke="black" d="M253.77,-685C302.17,-685 316.22,-695.42 359.92,-696.84"/>
<polygon fill="black" stroke="black" points="359.99,-700.34 370.04,-697 360.1,-693.34 359.99,-700.34"/>
</g>
<!-- n5&#45;&gt;c23 -->
<g id="edge22" class="edge">
<title>n5:e&#45;&gt;c23:w</title>
<path fill="none" stroke="black" d="M253.77,-685C302.13,-685 316.25,-675.45 359.93,-674.15"/>
<polygon fill="black" stroke="black" points="360.1,-677.65 370.04,-674 359.99,-670.65 360.1,-677.65"/>
</g>
<!-- n5&#45;&gt;c24 -->
<g id="edge23" class="edge">
<title>n5:e&#45;&gt;c24:w</title>
<path fill="none" stroke="black" d="M253.77,-685C311.89,-685 308.91,-617.65 359.87,-609.75"/>
<polygon fill="black" stroke="black" points="360.33,-613.23 370.04,-609 359.81,-606.25 360.33,-613.23"/>
</g>
<!-- n6 -->
<g id="node21" class="node">
<title>n6</title>
<polygon fill="none" stroke="black" points="161.77,-558 70.78,-540 161.77,-522 252.76,-540 161.77,-558"/>
<text text-anchor="middle" x="161.77" y="-536.3" font-family="Times,serif" font-size="14.00">$48.nand_3</text>
</g>
<!-- n6&#45;&gt;c23 -->
<g id="edge24" class="edge">
<title>n6:e&#45;&gt;c23:w</title>
<path fill="none" stroke="black" d="M253.77,-540C287.02,-540 298.48,-545.14 323.54,-567 352.69,-592.42 332.15,-640.75 359.81,-649.59"/>
<polygon fill="black" stroke="black" points="359.66,-653.11 370.04,-651 360.61,-646.17 359.66,-653.11"/>
</g>
<!-- n6&#45;&gt;c25 -->
<g id="edge25" class="edge">
<title>n6:e&#45;&gt;c25:w</title>
<path fill="none" stroke="black" d="M253.77,-540C302.55,-540 315.91,-523.51 359.85,-521.25"/>
<polygon fill="black" stroke="black" points="360.13,-524.75 370.04,-521 359.96,-517.75 360.13,-524.75"/>
</g>
<!-- n7 -->
<g id="node22" class="node">
<title>n7</title>
<polygon fill="none" stroke="black" points="161.77,-228 40.61,-210 161.77,-192 282.93,-210 161.77,-228"/>
<text text-anchor="middle" x="161.77" y="-206.3" font-family="Times,serif" font-size="14.00">$48.nand_QBAR</text>
</g>
<!-- n7&#45;&gt;c26 -->
<g id="edge26" class="edge">
<title>n7:e&#45;&gt;c26:w</title>
<path fill="none" stroke="black" d="M283.77,-210C334.5,-210 318.32,-134.49 359.91,-124.16"/>
<polygon fill="black" stroke="black" points="360.51,-127.62 370.04,-123 359.71,-120.66 360.51,-127.62"/>
</g>
<!-- n7&#45;&gt;c27 -->
<g id="edge27" class="edge">
<title>n7:e&#45;&gt;c27:w</title>
<path fill="none" stroke="black" d="M283.77,-210C319.84,-210 328.7,-229.71 359.67,-233.41"/>
<polygon fill="black" stroke="black" points="359.86,-236.92 370.04,-234 360.26,-229.93 359.86,-236.92"/>
</g>
<!-- n8 -->
<g id="node23" class="node">
<title>n8</title>
<polygon fill="none" stroke="black" points="161.77,-340 46.98,-322 161.77,-304 276.56,-322 161.77,-340"/>
<text text-anchor="middle" x="161.77" y="-318.3" font-family="Times,serif" font-size="14.00">$48.nand_dff_1</text>
</g>
<!-- n8&#45;&gt;c20 -->
<g id="edge28" class="edge">
<title>n8:e&#45;&gt;c20:w</title>
<path fill="none" stroke="black" d="M277.77,-322C315.1,-322 326.94,-322 359.69,-322"/>
<polygon fill="black" stroke="black" points="360.04,-325.5 370.04,-322 360.04,-318.5 360.04,-325.5"/>
</g>
<!-- n8&#45;&gt;c24 -->
<g id="edge29" class="edge">
<title>n8:e&#45;&gt;c24:w</title>
<path fill="none" stroke="black" d="M277.77,-322C301.85,-322 310.02,-331.07 323.54,-351 375.59,-427.7 281.47,-552.75 359.64,-562.41"/>
<polygon fill="black" stroke="black" points="359.86,-565.92 370.04,-563 360.26,-558.94 359.86,-565.92"/>
</g>
<!-- n8&#45;&gt;c26 -->
<g id="edge30" class="edge">
<title>n8:e&#45;&gt;c26:w</title>
<path fill="none" stroke="black" d="M277.77,-322C353.46,-322 296.55,-183.01 359.81,-169.98"/>
<polygon fill="black" stroke="black" points="360.42,-173.43 370.04,-169 359.76,-166.47 360.42,-173.43"/>
</g>
<!-- n9 -->
<g id="node24" class="node">
<title>n9</title>
<polygon fill="none" stroke="black" points="161.77,-396 46.98,-378 161.77,-360 276.56,-378 161.77,-396"/>
<text text-anchor="middle" x="161.77" y="-374.3" font-family="Times,serif" font-size="14.00">$48.nand_dff_2</text>
</g>
<!-- n9&#45;&gt;c21 -->
<g id="edge31" class="edge">
<title>n9:e&#45;&gt;c21:w</title>
<path fill="none" stroke="black" d="M277.77,-378C317.45,-378 325.42,-404.74 359.65,-409.33"/>
<polygon fill="black" stroke="black" points="359.84,-412.85 370.04,-410 360.29,-405.87 359.84,-412.85"/>
</g>
<!-- n9&#45;&gt;c25 -->
<g id="edge32" class="edge">
<title>n9:e&#45;&gt;c25:w</title>
<path fill="none" stroke="black" d="M277.77,-378C301.39,-378 306.4,-388.75 323.54,-405 347.79,-427.99 335.98,-465.86 359.95,-473.6"/>
<polygon fill="black" stroke="black" points="359.66,-477.09 370.04,-475 360.62,-470.15 359.66,-477.09"/>
</g>
<!-- n9&#45;&gt;c27 -->
<g id="edge33" class="edge">
<title>n9:e&#45;&gt;c27:w</title>
<path fill="none" stroke="black" d="M277.77,-378C301.85,-378 307.36,-366.83 323.54,-349 351.69,-317.99 328.95,-266.8 359.83,-258.23"/>
<polygon fill="black" stroke="black" points="360.54,-261.67 370.04,-257 359.7,-254.72 360.54,-261.67"/>
</g>
</g>
</svg>
