<?xml version="1.0" encoding="UTF-8" standalone="no"?>
<!DOCTYPE svg PUBLIC "-//W3C//DTD SVG 1.1//EN"
 "http://www.w3.org/Graphics/SVG/1.1/DTD/svg11.dtd">
<!-- Generated by graphviz version 2.43.0 (0)
 -->
<!-- Title: dff Pages: 1 -->
<svg width="505pt" height="893pt"
 viewBox="0.00 0.00 504.54 893.00" xmlns="http://www.w3.org/2000/svg" xmlns:xlink="http://www.w3.org/1999/xlink">
<g id="graph0" class="graph" transform="scale(1 1) rotate(0) translate(4 889)">
<title>dff</title>
<polygon fill="white" stroke="transparent" points="-4,4 -4,-889 500.54,-889 500.54,4 -4,4"/>
<text text-anchor="middle" x="248.27" y="-7.8" font-family="Times,serif" font-size="14.00">dff</text>
<!-- n10 -->
<g id="node1" class="node">
<title>n10</title>
<polygon fill="none" stroke="black" points="188.77,-842.54 188.77,-857.46 172.96,-868 150.59,-868 134.77,-857.46 134.77,-842.54 150.59,-832 172.96,-832 188.77,-842.54"/>
<text text-anchor="middle" x="161.77" y="-846.3" font-family="Times,serif" font-size="14.00">C</text>
</g>
<!-- c18 -->
<g id="node6" class="node">
<title>c18</title>
<polygon fill="none" stroke="black" points="371.04,-815.5 371.04,-884.5 485.04,-884.5 485.04,-815.5 371.04,-815.5"/>
<text text-anchor="middle" x="384.54" y="-869.3" font-family="Times,serif" font-size="14.00">A</text>
<polyline fill="none" stroke="black" points="371.04,-861.5 398.04,-861.5 "/>
<text text-anchor="middle" x="384.54" y="-846.3" font-family="Times,serif" font-size="14.00">B</text>
<polyline fill="none" stroke="black" points="371.04,-838.5 398.04,-838.5 "/>
<text text-anchor="middle" x="384.54" y="-823.3" font-family="Times,serif" font-size="14.00">Y</text>
<polyline fill="none" stroke="black" points="398.04,-815.5 398.04,-884.5 "/>
<text text-anchor="middle" x="431.04" y="-853.8" font-family="Times,serif" font-size="14.00">$48.u1</text>
<text text-anchor="middle" x="431.04" y="-838.8" font-family="Times,serif" font-size="14.00">NAND</text>
<polyline fill="none" stroke="black" points="464.04,-815.5 464.04,-884.5 "/>
<text text-anchor="middle" x="474.54" y="-846.3" font-family="Times,serif" font-size="14.00"> </text>
</g>
<!-- n10&#45;&gt;c18 -->
<g id="edge4" class="edge">
<title>n10:e&#45;&gt;c18:w</title>
<path fill="none" stroke="black" d="M189.77,-850C266.45,-850 288.09,-850 360.04,-850"/>
<polygon fill="black" stroke="black" points="360.04,-853.5 370.04,-850 360.04,-846.5 360.04,-853.5"/>
</g>
<!-- n11 -->
<g id="node2" class="node">
<title>n11</title>
<polygon fill="none" stroke="black" points="188.77,-504.54 188.77,-519.46 172.96,-530 150.59,-530 134.77,-519.46 134.77,-504.54 150.59,-494 172.96,-494 188.77,-504.54"/>
<text text-anchor="middle" x="161.77" y="-508.3" font-family="Times,serif" font-size="14.00">D</text>
</g>
<!-- c19 -->
<g id="node7" class="node">
<title>c19</title>
<polygon fill="none" stroke="black" points="371.04,-375.5 371.04,-444.5 485.04,-444.5 485.04,-375.5 371.04,-375.5"/>
<text text-anchor="middle" x="384.54" y="-429.3" font-family="Times,serif" font-size="14.00">A</text>
<polyline fill="none" stroke="black" points="371.04,-421.5 398.04,-421.5 "/>
<text text-anchor="middle" x="384.54" y="-406.3" font-family="Times,serif" font-size="14.00">B</text>
<polyline fill="none" stroke="black" points="371.04,-398.5 398.04,-398.5 "/>
<text text-anchor="middle" x="384.54" y="-383.3" font-family="Times,serif" font-size="14.00">Y</text>
<polyline fill="none" stroke="black" points="398.04,-375.5 398.04,-444.5 "/>
<text text-anchor="middle" x="431.04" y="-413.8" font-family="Times,serif" font-size="14.00">$48.u2</text>
<text text-anchor="middle" x="431.04" y="-398.8" font-family="Times,serif" font-size="14.00">NAND</text>
<polyline fill="none" stroke="black" points="464.04,-375.5 464.04,-444.5 "/>
<text text-anchor="middle" x="474.54" y="-406.3" font-family="Times,serif" font-size="14.00"> </text>
</g>
<!-- n11&#45;&gt;c19 -->
<g id="edge5" class="edge">
<title>n11:e&#45;&gt;c19:w</title>
<path fill="none" stroke="black" d="M189.77,-512C250.42,-512 270.91,-515.15 323.54,-485 346.87,-471.64 341.39,-442.35 359.75,-434.8"/>
<polygon fill="black" stroke="black" points="360.8,-438.17 370.04,-433 359.59,-431.28 360.8,-438.17"/>
</g>
<!-- n12 -->
<g id="node3" class="node">
<title>n12</title>
<polygon fill="none" stroke="black" points="188.77,-123.54 188.77,-138.46 172.96,-149 150.59,-149 134.77,-138.46 134.77,-123.54 150.59,-113 172.96,-113 188.77,-123.54"/>
<text text-anchor="middle" x="161.77" y="-127.3" font-family="Times,serif" font-size="14.00">Q</text>
</g>
<!-- c25 -->
<g id="node13" class="node">
<title>c25</title>
<polygon fill="none" stroke="black" points="371.04,-199.5 371.04,-268.5 485.04,-268.5 485.04,-199.5 371.04,-199.5"/>
<text text-anchor="middle" x="384.54" y="-253.3" font-family="Times,serif" font-size="14.00">A</text>
<polyline fill="none" stroke="black" points="371.04,-245.5 398.04,-245.5 "/>
<text text-anchor="middle" x="384.54" y="-230.3" font-family="Times,serif" font-size="14.00">B</text>
<polyline fill="none" stroke="black" points="371.04,-222.5 398.04,-222.5 "/>
<text text-anchor="middle" x="384.54" y="-207.3" font-family="Times,serif" font-size="14.00">Y</text>
<polyline fill="none" stroke="black" points="398.04,-199.5 398.04,-268.5 "/>
<text text-anchor="middle" x="431.04" y="-237.8" font-family="Times,serif" font-size="14.00">$48.u8</text>
<text text-anchor="middle" x="431.04" y="-222.8" font-family="Times,serif" font-size="14.00">NAND</text>
<polyline fill="none" stroke="black" points="464.04,-199.5 464.04,-268.5 "/>
<text text-anchor="middle" x="474.54" y="-230.3" font-family="Times,serif" font-size="14.00"> </text>
</g>
<!-- n12&#45;&gt;c25 -->
<g id="edge6" class="edge">
<title>n12:e&#45;&gt;c25:w</title>
<path fill="none" stroke="black" d="M189.77,-131C251.34,-131 273.2,-131.55 323.54,-167 349.94,-185.59 337.45,-224.21 360.01,-232.44"/>
<polygon fill="black" stroke="black" points="359.62,-235.92 370.04,-234 360.7,-229 359.62,-235.92"/>
</g>
<!-- c26 -->
<g id="node14" class="node">
<title>c26</title>
<polygon fill="none" stroke="black" points="371.04,-111.5 371.04,-180.5 485.04,-180.5 485.04,-111.5 371.04,-111.5"/>
<text text-anchor="middle" x="384.54" y="-165.3" font-family="Times,serif" font-size="14.00">A</text>
<polyline fill="none" stroke="black" points="371.04,-157.5 398.04,-157.5 "/>
<text text-anchor="middle" x="384.54" y="-142.3" font-family="Times,serif" font-size="14.00">B</text>
<polyline fill="none" stroke="black" points="371.04,-134.5 398.04,-134.5 "/>
<text text-anchor="middle" x="384.54" y="-119.3" font-family="Times,serif" font-size="14.00">Y</text>
<polyline fill="none" stroke="black" points="398.04,-111.5 398.04,-180.5 "/>
<text text-anchor="middle" x="431.04" y="-149.8" font-family="Times,serif" font-size="14.00">$48.u9</text>
<text text-anchor="middle" x="431.04" y="-134.8" font-family="Times,serif" font-size="14.00">NAND</text>
<polyline fill="none" stroke="black" points="464.04,-111.5 464.04,-180.5 "/>
<text text-anchor="middle" x="474.54" y="-142.3" font-family="Times,serif" font-size="14.00"> </text>
</g>
<!-- n12&#45;&gt;c26 -->
<g id="edge7" class="edge">
<title>n12:e&#45;&gt;c26:w</title>
<path fill="none" stroke="black" d="M189.77,-131C266.53,-131 288.02,-123.67 360.03,-123.04"/>
<polygon fill="black" stroke="black" points="360.06,-126.54 370.04,-123 360.03,-119.54 360.06,-126.54"/>
</g>
<!-- n13 -->
<g id="node4" class="node">
<title>n13</title>
<polygon fill="none" stroke="black" points="188.77,-55.54 188.77,-70.46 172.96,-81 150.59,-81 134.77,-70.46 134.77,-55.54 150.59,-45 172.96,-45 188.77,-55.54"/>
<text text-anchor="middle" x="161.77" y="-59.3" font-family="Times,serif" font-size="14.00">R</text>
</g>
<!-- c17 -->
<g id="node5" class="node">
<title>c17</title>
<polygon fill="none" stroke="black" points="359.54,-23.5 359.54,-92.5 496.54,-92.5 496.54,-23.5 359.54,-23.5"/>
<text text-anchor="middle" x="373.04" y="-77.3" font-family="Times,serif" font-size="14.00">A</text>
<polyline fill="none" stroke="black" points="359.54,-69.5 386.54,-69.5 "/>
<text text-anchor="middle" x="373.04" y="-54.3" font-family="Times,serif" font-size="14.00">B</text>
<polyline fill="none" stroke="black" points="359.54,-46.5 386.54,-46.5 "/>
<text text-anchor="middle" x="373.04" y="-31.3" font-family="Times,serif" font-size="14.00">Y</text>
<polyline fill="none" stroke="black" points="386.54,-23.5 386.54,-92.5 "/>
<text text-anchor="middle" x="431.04" y="-61.8" font-family="Times,serif" font-size="14.00">$48.u0.u1</text>
<text text-anchor="middle" x="431.04" y="-46.8" font-family="Times,serif" font-size="14.00">NAND</text>
<polyline fill="none" stroke="black" points="475.54,-23.5 475.54,-92.5 "/>
<text text-anchor="middle" x="486.04" y="-54.3" font-family="Times,serif" font-size="14.00"> </text>
</g>
<!-- n13&#45;&gt;c17 -->
<g id="edge8" class="edge">
<title>n13:e&#45;&gt;c17:w</title>
<path fill="none" stroke="black" d="M189.77,-63C262.09,-63 281.85,-79.35 349.24,-80.89"/>
<polygon fill="black" stroke="black" points="349.5,-84.39 359.54,-81 349.58,-77.39 349.5,-84.39"/>
</g>
<!-- n13&#45;&gt;c17 -->
<g id="edge9" class="edge">
<title>n13:e&#45;&gt;c17:w</title>
<path fill="none" stroke="black" d="M189.77,-63C261.72,-63 282.17,-58.46 349.29,-58.03"/>
<polygon fill="black" stroke="black" points="349.55,-61.53 359.54,-58 349.53,-54.53 349.55,-61.53"/>
</g>
<!-- c20 -->
<g id="node8" class="node">
<title>c20</title>
<polygon fill="none" stroke="black" points="371.04,-287.5 371.04,-356.5 485.04,-356.5 485.04,-287.5 371.04,-287.5"/>
<text text-anchor="middle" x="384.54" y="-341.3" font-family="Times,serif" font-size="14.00">A</text>
<polyline fill="none" stroke="black" points="371.04,-333.5 398.04,-333.5 "/>
<text text-anchor="middle" x="384.54" y="-318.3" font-family="Times,serif" font-size="14.00">B</text>
<polyline fill="none" stroke="black" points="371.04,-310.5 398.04,-310.5 "/>
<text text-anchor="middle" x="384.54" y="-295.3" font-family="Times,serif" font-size="14.00">Y</text>
<polyline fill="none" stroke="black" points="398.04,-287.5 398.04,-356.5 "/>
<text text-anchor="middle" x="431.04" y="-325.8" font-family="Times,serif" font-size="14.00">$48.u3</text>
<text text-anchor="middle" x="431.04" y="-310.8" font-family="Times,serif" font-size="14.00">NAND</text>
<polyline fill="none" stroke="black" points="464.04,-287.5 464.04,-356.5 "/>
<text text-anchor="middle" x="474.54" y="-318.3" font-family="Times,serif" font-size="14.00"> </text>
</g>
<!-- c21 -->
<g id="node9" class="node">
<title>c21</title>
<polygon fill="none" stroke="black" points="371.04,-727.5 371.04,-796.5 485.04,-796.5 485.04,-727.5 371.04,-727.5"/>
<text text-anchor="middle" x="384.54" y="-781.3" font-family="Times,serif" font-size="14.00">A</text>
<polyline fill="none" stroke="black" points="371.04,-773.5 398.04,-773.5 "/>
<text text-anchor="middle" x="384.54" y="-758.3" font-family="Times,serif" font-size="14.00">B</text>
<polyline fill="none" stroke="black" points="371.04,-750.5 398.04,-750.5 "/>
<text text-anchor="middle" x="384.54" y="-735.3" font-family="Times,serif" font-size="14.00">Y</text>
<polyline fill="none" stroke="black" points="398.04,-727.5 398.04,-796.5 "/>
<text text-anchor="middle" x="431.04" y="-765.8" font-family="Times,serif" font-size="14.00">$48.u4</text>
<text text-anchor="middle" x="431.04" y="-750.8" font-family="Times,serif" font-size="14.00">NAND</text>
<polyline fill="none" stroke="black" points="464.04,-727.5 464.04,-796.5 "/>
<text text-anchor="middle" x="474.54" y="-758.3" font-family="Times,serif" font-size="14.00"> </text>
</g>
<!-- c22 -->
<g id="node10" class="node">
<title>c22</title>
<polygon fill="none" stroke="black" points="371.04,-639.5 371.04,-708.5 485.04,-708.5 485.04,-639.5 371.04,-639.5"/>
<text text-anchor="middle" x="384.54" y="-693.3" font-family="Times,serif" font-size="14.00">A</text>
<polyline fill="none" stroke="black" points="371.04,-685.5 398.04,-685.5 "/>
<text text-anchor="middle" x="384.54" y="-670.3" font-family="Times,serif" font-size="14.00">B</text>
<polyline fill="none" stroke="black" points="371.04,-662.5 398.04,-662.5 "/>
<text text-anchor="middle" x="384.54" y="-647.3" font-family="Times,serif" font-size="14.00">Y</text>
<polyline fill="none" stroke="black" points="398.04,-639.5 398.04,-708.5 "/>
<text text-anchor="middle" x="431.04" y="-677.8" font-family="Times,serif" font-size="14.00">$48.u5</text>
<text text-anchor="middle" x="431.04" y="-662.8" font-family="Times,serif" font-size="14.00">NAND</text>
<polyline fill="none" stroke="black" points="464.04,-639.5 464.04,-708.5 "/>
<text text-anchor="middle" x="474.54" y="-670.3" font-family="Times,serif" font-size="14.00"> </text>
</g>
<!-- c23 -->
<g id="node11" class="node">
<title>c23</title>
<polygon fill="none" stroke="black" points="371.04,-551.5 371.04,-620.5 485.04,-620.5 485.04,-551.5 371.04,-551.5"/>
<text text-anchor="middle" x="384.54" y="-605.3" font-family="Times,serif" font-size="14.00">A</text>
<polyline fill="none" stroke="black" points="371.04,-597.5 398.04,-597.5 "/>
<text text-anchor="middle" x="384.54" y="-582.3" font-family="Times,serif" font-size="14.00">B</text>
<polyline fill="none" stroke="black" points="371.04,-574.5 398.04,-574.5 "/>
<text text-anchor="middle" x="384.54" y="-559.3" font-family="Times,serif" font-size="14.00">Y</text>
<polyline fill="none" stroke="black" points="398.04,-551.5 398.04,-620.5 "/>
<text text-anchor="middle" x="431.04" y="-589.8" font-family="Times,serif" font-size="14.00">$48.u6</text>
<text text-anchor="middle" x="431.04" y="-574.8" font-family="Times,serif" font-size="14.00">NAND</text>
<polyline fill="none" stroke="black" points="464.04,-551.5 464.04,-620.5 "/>
<text text-anchor="middle" x="474.54" y="-582.3" font-family="Times,serif" font-size="14.00"> </text>
</g>
<!-- c24 -->
<g id="node12" class="node">
<title>c24</title>
<polygon fill="none" stroke="black" points="371.04,-463.5 371.04,-532.5 485.04,-532.5 485.04,-463.5 371.04,-463.5"/>
<text text-anchor="middle" x="384.54" y="-517.3" font-family="Times,serif" font-size="14.00">A</text>
<polyline fill="none" stroke="black" points="371.04,-509.5 398.04,-509.5 "/>
<text text-anchor="middle" x="384.54" y="-494.3" font-family="Times,serif" font-size="14.00">B</text>
<polyline fill="none" stroke="black" points="371.04,-486.5 398.04,-486.5 "/>
<text text-anchor="middle" x="384.54" y="-471.3" font-family="Times,serif" font-size="14.00">Y</text>
<polyline fill="none" stroke="black" points="398.04,-463.5 398.04,-532.5 "/>
<text text-anchor="middle" x="431.04" y="-501.8" font-family="Times,serif" font-size="14.00">$48.u7</text>
<text text-anchor="middle" x="431.04" y="-486.8" font-family="Times,serif" font-size="14.00">NAND</text>
<polyline fill="none" stroke="black" points="464.04,-463.5 464.04,-532.5 "/>
<text text-anchor="middle" x="474.54" y="-494.3" font-family="Times,serif" font-size="14.00"> </text>
</g>
<!-- n1 -->
<g id="node15" class="node">
<title>n1</title>
<polygon fill="none" stroke="black" points="161.77,-638 25.7,-620 161.77,-602 297.84,-620 161.77,-638"/>
<text text-anchor="middle" x="161.77" y="-616.3" font-family="Times,serif" font-size="14.00">$48.C_nand_not_R</text>
</g>
<!-- n1&#45;&gt;c18 -->
<g id="edge1" class="edge">
<title>n1:e&#45;&gt;c18:w</title>
<path fill="none" stroke="black" d="M298.77,-620C392.27,-620 282.04,-811.14 359.62,-826.08"/>
<polygon fill="black" stroke="black" points="359.77,-829.6 370.04,-827 360.39,-822.63 359.77,-829.6"/>
</g>
<!-- n1&#45;&gt;c23 -->
<g id="edge2" class="edge">
<title>n1:e&#45;&gt;c23:w</title>
<path fill="none" stroke="black" d="M298.77,-620C330.17,-620 334.34,-592.79 359.99,-587.05"/>
<polygon fill="black" stroke="black" points="360.46,-590.52 370.04,-586 359.73,-583.56 360.46,-590.52"/>
</g>
<!-- n1&#45;&gt;c24 -->
<g id="edge3" class="edge">
<title>n1:e&#45;&gt;c24:w</title>
<path fill="none" stroke="black" d="M298.77,-620C357.77,-620 313.4,-512.33 359.87,-499.29"/>
<polygon fill="black" stroke="black" points="360.56,-502.73 370.04,-498 359.68,-495.78 360.56,-502.73"/>
</g>
<!-- n2 -->
<g id="node16" class="node">
<title>n2</title>
<polygon fill="none" stroke="black" points="161.77,-368 0.23,-350 161.77,-332 323.32,-350 161.77,-368"/>
<text text-anchor="middle" x="161.77" y="-346.3" font-family="Times,serif" font-size="14.00">$48.D_nand_Feedback</text>
</g>
<!-- n2&#45;&gt;c19 -->
<g id="edge10" class="edge">
<title>n2:e&#45;&gt;c19:w</title>
<path fill="none" stroke="black" d="M323.54,-350C346.03,-350 344.79,-376.83 360.23,-384.8"/>
<polygon fill="black" stroke="black" points="359.52,-388.22 370.04,-387 361.05,-381.39 359.52,-388.22"/>
</g>
<!-- n2&#45;&gt;c20 -->
<g id="edge11" class="edge">
<title>n2:e&#45;&gt;c20:w</title>
<path fill="none" stroke="black" d="M323.54,-350C340.43,-350 346.85,-346.7 359.81,-345.46"/>
<polygon fill="black" stroke="black" points="360.21,-348.95 370.04,-345 359.9,-341.95 360.21,-348.95"/>
</g>
<!-- n3 -->
<g id="node17" class="node">
<title>n3</title>
<polygon fill="none" stroke="black" points="161.77,-476 70.78,-458 161.77,-440 252.76,-458 161.77,-476"/>
<text text-anchor="middle" x="161.77" y="-454.3" font-family="Times,serif" font-size="14.00">$48.nand_1</text>
</g>
<!-- n3&#45;&gt;c20 -->
<g id="edge12" class="edge">
<title>n3:e&#45;&gt;c20:w</title>
<path fill="none" stroke="black" d="M253.77,-458C287.02,-458 300.39,-454.87 323.54,-431 364.23,-389.05 314.61,-309.42 360.03,-299.93"/>
<polygon fill="black" stroke="black" points="360.41,-303.41 370.04,-299 359.76,-296.44 360.41,-303.41"/>
</g>
<!-- n3&#45;&gt;c21 -->
<g id="edge13" class="edge">
<title>n3:e&#45;&gt;c21:w</title>
<path fill="none" stroke="black" d="M253.77,-458C287.02,-458 302.7,-459.09 323.54,-485 363.52,-534.69 309.18,-758.52 360.11,-782.85"/>
<polygon fill="black" stroke="black" points="359.53,-786.31 370.04,-785 361.01,-779.47 359.53,-786.31"/>
</g>
<!-- n4 -->
<g id="node18" class="node">
<title>n4</title>
<polygon fill="none" stroke="black" points="161.77,-703 70.78,-685 161.77,-667 252.76,-685 161.77,-703"/>
<text text-anchor="middle" x="161.77" y="-681.3" font-family="Times,serif" font-size="14.00">$48.nand_2</text>
</g>
<!-- n4&#45;&gt;c21 -->
<g id="edge14" class="edge">
<title>n4:e&#45;&gt;c21:w</title>
<path fill="none" stroke="black" d="M253.77,-685C307.19,-685 312.56,-732.46 359.97,-738.39"/>
<polygon fill="black" stroke="black" points="359.85,-741.89 370.04,-739 360.27,-734.91 359.85,-741.89"/>
</g>
<!-- n4&#45;&gt;c22 -->
<g id="edge15" class="edge">
<title>n4:e&#45;&gt;c22:w</title>
<path fill="none" stroke="black" d="M253.77,-685C302.17,-685 316.22,-695.42 359.92,-696.84"/>
<polygon fill="black" stroke="black" points="359.99,-700.34 370.04,-697 360.1,-693.34 359.99,-700.34"/>
</g>
<!-- n4&#45;&gt;c22 -->
<g id="edge16" class="edge">
<title>n4:e&#45;&gt;c22:w</title>
<path fill="none" stroke="black" d="M253.77,-685C302.13,-685 316.25,-675.45 359.93,-674.15"/>
<polygon fill="black" stroke="black" points="360.1,-677.65 370.04,-674 359.99,-670.65 360.1,-677.65"/>
</g>
<!-- n4&#45;&gt;c23 -->
<g id="edge17" class="edge">
<title>n4:e&#45;&gt;c23:w</title>
<path fill="none" stroke="black" d="M253.77,-685C289.08,-685 294.24,-666.7 323.54,-647 342.4,-634.32 343.51,-615.68 359.9,-610.43"/>
<polygon fill="black" stroke="black" points="360.63,-613.86 370.04,-609 359.65,-606.93 360.63,-613.86"/>
</g>
<!-- n5 -->
<g id="node19" class="node">
<title>n5</title>
<polygon fill="none" stroke="black" points="161.77,-584 70.78,-566 161.77,-548 252.76,-566 161.77,-584"/>
<text text-anchor="middle" x="161.77" y="-562.3" font-family="Times,serif" font-size="14.00">$48.nand_3</text>
</g>
<!-- n5&#45;&gt;c22 -->
<g id="edge18" class="edge">
<title>n5:e&#45;&gt;c22:w</title>
<path fill="none" stroke="black" d="M253.77,-566C287.02,-566 296.72,-573.35 323.54,-593 346.97,-610.16 339.62,-641.96 359.92,-649.41"/>
<polygon fill="black" stroke="black" points="359.62,-652.9 370.04,-651 360.71,-645.99 359.62,-652.9"/>
</g>
<!-- n5&#45;&gt;c24 -->
<g id="edge19" class="edge">
<title>n5:e&#45;&gt;c24:w</title>
<path fill="none" stroke="black" d="M253.77,-566C253.95,-566 332.67,-535.43 360.47,-524.68"/>
<polygon fill="black" stroke="black" points="361.97,-527.86 370.04,-521 359.45,-521.32 361.97,-527.86"/>
</g>
<!-- n6 -->
<g id="node20" class="node">
<title>n6</title>
<polygon fill="none" stroke="black" points="161.77,-212 40.61,-194 161.77,-176 282.93,-194 161.77,-212"/>
<text text-anchor="middle" x="161.77" y="-190.3" font-family="Times,serif" font-size="14.00">$48.nand_QBAR</text>
</g>
<!-- n6&#45;&gt;c25 -->
<g id="edge20" class="edge">
<title>n6:e&#45;&gt;c25:w</title>
<path fill="none" stroke="black" d="M283.77,-194C319.19,-194 329.17,-207.96 359.82,-210.58"/>
<polygon fill="black" stroke="black" points="359.91,-214.09 370.04,-211 360.2,-207.09 359.91,-214.09"/>
</g>
<!-- n6&#45;&gt;c26 -->
<g id="edge21" class="edge">
<title>n6:e&#45;&gt;c26:w</title>
<path fill="none" stroke="black" d="M283.77,-194C323.88,-194 326.09,-153.9 359.68,-147"/>
<polygon fill="black" stroke="black" points="360.43,-150.45 370.04,-146 359.75,-143.48 360.43,-150.45"/>
</g>
<!-- n7 -->
<g id="node21" class="node">
<title>n7</title>
<polygon fill="none" stroke="black" points="161.77,-422 46.98,-404 161.77,-386 276.56,-404 161.77,-422"/>
<text text-anchor="middle" x="161.77" y="-400.3" font-family="Times,serif" font-size="14.00">$48.nand_dff_1</text>
</g>
<!-- n7&#45;&gt;c19 -->
<g id="edge22" class="edge">
<title>n7:e&#45;&gt;c19:w</title>
<path fill="none" stroke="black" d="M277.77,-404C315.18,-404 326.89,-408.97 359.67,-409.86"/>
<polygon fill="black" stroke="black" points="360,-413.37 370.04,-410 360.09,-406.37 360,-413.37"/>
</g>
<!-- n7&#45;&gt;c23 -->
<g id="edge23" class="edge">
<title>n7:e&#45;&gt;c23:w</title>
<path fill="none" stroke="black" d="M277.77,-404C301.39,-404 308.77,-412.57 323.54,-431 360.09,-476.59 314.11,-553.02 359.98,-562.11"/>
<polygon fill="black" stroke="black" points="359.77,-565.6 370.04,-563 360.39,-558.63 359.77,-565.6"/>
</g>
<!-- n7&#45;&gt;c25 -->
<g id="edge24" class="edge">
<title>n7:e&#45;&gt;c25:w</title>
<path fill="none" stroke="black" d="M277.77,-404C301.39,-404 308.45,-395.17 323.54,-377 357.67,-335.93 318.75,-266.95 359.98,-257.97"/>
<polygon fill="black" stroke="black" points="360.43,-261.45 370.04,-257 359.75,-254.48 360.43,-261.45"/>
</g>
<!-- n8 -->
<g id="node22" class="node">
<title>n8</title>
<polygon fill="none" stroke="black" points="161.77,-314 46.98,-296 161.77,-278 276.56,-296 161.77,-314"/>
<text text-anchor="middle" x="161.77" y="-292.3" font-family="Times,serif" font-size="14.00">$48.nand_dff_2</text>
</g>
<!-- n8&#45;&gt;c20 -->
<g id="edge25" class="edge">
<title>n8:e&#45;&gt;c20:w</title>
<path fill="none" stroke="black" d="M277.77,-296C316.72,-296 325.96,-317.72 359.8,-321.46"/>
<polygon fill="black" stroke="black" points="359.87,-324.97 370.04,-322 360.24,-317.98 359.87,-324.97"/>
</g>
<!-- n8&#45;&gt;c24 -->
<g id="edge26" class="edge">
<title>n8:e&#45;&gt;c24:w</title>
<path fill="none" stroke="black" d="M277.77,-296C301.39,-296 309.19,-304.24 323.54,-323 364.2,-376.15 306.17,-465 359.98,-474.22"/>
<polygon fill="black" stroke="black" points="359.8,-477.72 370.04,-475 360.34,-470.74 359.8,-477.72"/>
</g>
<!-- n8&#45;&gt;c26 -->
<g id="edge27" class="edge">
<title>n8:e&#45;&gt;c26:w</title>
<path fill="none" stroke="black" d="M277.77,-296C343.86,-296 304.93,-182.04 359.95,-170.02"/>
<polygon fill="black" stroke="black" points="360.45,-173.49 370.04,-169 359.74,-166.53 360.45,-173.49"/>
</g>
<!-- n9 -->
<g id="node23" class="node">
<title>n9</title>
<polygon fill="none" stroke="black" points="161.77,-780 80.16,-762 161.77,-744 243.38,-762 161.77,-780"/>
<text text-anchor="middle" x="161.77" y="-758.3" font-family="Times,serif" font-size="14.00">$48.not_R</text>
</g>
<!-- n9&#45;&gt;c17 -->
<g id="edge28" class="edge">
<title>n9:e&#45;&gt;c17:w</title>
<path fill="none" stroke="black" d="M244.77,-762C286.24,-762 302.61,-747.8 323.54,-712 359.79,-650.02 291.21,-91.17 349.93,-38.91"/>
<polygon fill="black" stroke="black" points="351.6,-42.01 359.54,-35 348.96,-35.53 351.6,-42.01"/>
</g>
<!-- n9&#45;&gt;c18 -->
<g id="edge29" class="edge">
<title>n9:e&#45;&gt;c18:w</title>
<path fill="none" stroke="black" d="M244.77,-762C289.05,-762 290.85,-793.13 323.54,-823 343.06,-840.83 340.83,-865.54 359.99,-871.61"/>
<polygon fill="black" stroke="black" points="359.66,-875.1 370.04,-873 360.62,-868.16 359.66,-875.1"/>
</g>
<!-- n9&#45;&gt;c21 -->
<g id="edge30" class="edge">
<title>n9:e&#45;&gt;c21:w</title>
<path fill="none" stroke="black" d="M244.77,-762C296.86,-762 312.4,-762 359.78,-762"/>
<polygon fill="black" stroke="black" points="360.04,-765.5 370.04,-762 360.04,-758.5 360.04,-765.5"/>
</g>
</g>
</svg>
