<?xml version="1.0" encoding="UTF-8" standalone="no"?>
<!DOCTYPE svg PUBLIC "-//W3C//DTD SVG 1.1//EN"
 "http://www.w3.org/Graphics/SVG/1.1/DTD/svg11.dtd">
<!-- Generated by graphviz version 2.43.0 (0)
 -->
<!-- Title: dff Pages: 1 -->
<svg width="541pt" height="1773pt"
 viewBox="0.00 0.00 541.12 1773.00" xmlns="http://www.w3.org/2000/svg" xmlns:xlink="http://www.w3.org/1999/xlink">
<g id="graph0" class="graph" transform="scale(1 1) rotate(0) translate(4 1769)">
<title>dff</title>
<polygon fill="white" stroke="transparent" points="-4,4 -4,-1769 537.12,-1769 537.12,4 -4,4"/>
<text text-anchor="middle" x="266.56" y="-7.8" font-family="Times,serif" font-size="14.00">dff</text>
<!-- n20 -->
<g id="node1" class="node">
<title>n20</title>
<polygon fill="none" stroke="black" points="202.56,-1722.54 202.56,-1737.46 186.74,-1748 164.38,-1748 148.56,-1737.46 148.56,-1722.54 164.38,-1712 186.74,-1712 202.56,-1722.54"/>
<text text-anchor="middle" x="175.56" y="-1726.3" font-family="Times,serif" font-size="14.00">C</text>
</g>
<!-- c33 -->
<g id="node11" class="node">
<title>c33</title>
<polygon fill="none" stroke="black" points="391.62,-1695.5 391.62,-1764.5 528.62,-1764.5 528.62,-1695.5 391.62,-1695.5"/>
<text text-anchor="middle" x="405.12" y="-1749.3" font-family="Times,serif" font-size="14.00">A</text>
<polyline fill="none" stroke="black" points="391.62,-1741.5 418.62,-1741.5 "/>
<text text-anchor="middle" x="405.12" y="-1726.3" font-family="Times,serif" font-size="14.00">B</text>
<polyline fill="none" stroke="black" points="391.62,-1718.5 418.62,-1718.5 "/>
<text text-anchor="middle" x="405.12" y="-1703.3" font-family="Times,serif" font-size="14.00">Y</text>
<polyline fill="none" stroke="black" points="418.62,-1695.5 418.62,-1764.5 "/>
<text text-anchor="middle" x="463.12" y="-1733.8" font-family="Times,serif" font-size="14.00">$48.n3.u1</text>
<text text-anchor="middle" x="463.12" y="-1718.8" font-family="Times,serif" font-size="14.00">NAND</text>
<polyline fill="none" stroke="black" points="507.62,-1695.5 507.62,-1764.5 "/>
<text text-anchor="middle" x="518.12" y="-1726.3" font-family="Times,serif" font-size="14.00"> </text>
</g>
<!-- n20&#45;&gt;c33 -->
<g id="edge34" class="edge">
<title>n20:e&#45;&gt;c33:w</title>
<path fill="none" stroke="black" d="M203.56,-1730C283.51,-1730 304.78,-1751.07 379.69,-1752.88"/>
<polygon fill="black" stroke="black" points="380.08,-1756.38 390.12,-1753 380.16,-1749.38 380.08,-1756.38"/>
</g>
<!-- n20&#45;&gt;c33 -->
<g id="edge35" class="edge">
<title>n20:e&#45;&gt;c33:w</title>
<path fill="none" stroke="black" d="M203.56,-1730C282.91,-1730 305.31,-1730 379.76,-1730"/>
<polygon fill="black" stroke="black" points="380.12,-1733.5 390.12,-1730 380.12,-1726.5 380.12,-1733.5"/>
</g>
<!-- c43 -->
<g id="node21" class="node">
<title>c43</title>
<polygon fill="none" stroke="black" points="403.12,-1431.5 403.12,-1500.5 517.12,-1500.5 517.12,-1431.5 403.12,-1431.5"/>
<text text-anchor="middle" x="416.62" y="-1485.3" font-family="Times,serif" font-size="14.00">A</text>
<polyline fill="none" stroke="black" points="403.12,-1477.5 430.12,-1477.5 "/>
<text text-anchor="middle" x="416.62" y="-1462.3" font-family="Times,serif" font-size="14.00">B</text>
<polyline fill="none" stroke="black" points="403.12,-1454.5 430.12,-1454.5 "/>
<text text-anchor="middle" x="416.62" y="-1439.3" font-family="Times,serif" font-size="14.00">Y</text>
<polyline fill="none" stroke="black" points="430.12,-1431.5 430.12,-1500.5 "/>
<text text-anchor="middle" x="463.12" y="-1469.8" font-family="Times,serif" font-size="14.00">$48.u5</text>
<text text-anchor="middle" x="463.12" y="-1454.8" font-family="Times,serif" font-size="14.00">NAND</text>
<polyline fill="none" stroke="black" points="496.12,-1431.5 496.12,-1500.5 "/>
<text text-anchor="middle" x="506.62" y="-1462.3" font-family="Times,serif" font-size="14.00"> </text>
</g>
<!-- n20&#45;&gt;c43 -->
<g id="edge36" class="edge">
<title>n20:e&#45;&gt;c43:w</title>
<path fill="none" stroke="black" d="M203.56,-1730C271.28,-1730 304.61,-1741.23 351.12,-1692 419.35,-1619.78 307.54,-1476.53 392.08,-1466.55"/>
<polygon fill="black" stroke="black" points="392.32,-1470.04 402.12,-1466 391.94,-1463.05 392.32,-1470.04"/>
</g>
<!-- n21 -->
<g id="node2" class="node">
<title>n21</title>
<polygon fill="none" stroke="black" points="202.56,-578.54 202.56,-593.46 186.74,-604 164.38,-604 148.56,-593.46 148.56,-578.54 164.38,-568 186.74,-568 202.56,-578.54"/>
<text text-anchor="middle" x="175.56" y="-582.3" font-family="Times,serif" font-size="14.00">D</text>
</g>
<!-- c45 -->
<g id="node23" class="node">
<title>c45</title>
<polygon fill="none" stroke="black" points="403.12,-551.5 403.12,-620.5 517.12,-620.5 517.12,-551.5 403.12,-551.5"/>
<text text-anchor="middle" x="416.62" y="-605.3" font-family="Times,serif" font-size="14.00">A</text>
<polyline fill="none" stroke="black" points="403.12,-597.5 430.12,-597.5 "/>
<text text-anchor="middle" x="416.62" y="-582.3" font-family="Times,serif" font-size="14.00">B</text>
<polyline fill="none" stroke="black" points="403.12,-574.5 430.12,-574.5 "/>
<text text-anchor="middle" x="416.62" y="-559.3" font-family="Times,serif" font-size="14.00">Y</text>
<polyline fill="none" stroke="black" points="430.12,-551.5 430.12,-620.5 "/>
<text text-anchor="middle" x="463.12" y="-589.8" font-family="Times,serif" font-size="14.00">$48.u7</text>
<text text-anchor="middle" x="463.12" y="-574.8" font-family="Times,serif" font-size="14.00">NAND</text>
<polyline fill="none" stroke="black" points="496.12,-551.5 496.12,-620.5 "/>
<text text-anchor="middle" x="506.62" y="-582.3" font-family="Times,serif" font-size="14.00"> </text>
</g>
<!-- n21&#45;&gt;c45 -->
<g id="edge37" class="edge">
<title>n21:e&#45;&gt;c45:w</title>
<path fill="none" stroke="black" d="M203.56,-586C288.36,-586 312.05,-586 392.07,-586"/>
<polygon fill="black" stroke="black" points="392.12,-589.5 402.12,-586 392.12,-582.5 392.12,-589.5"/>
</g>
<!-- n22 -->
<g id="node3" class="node">
<title>n22</title>
<polygon fill="none" stroke="black" points="202.56,-98.54 202.56,-113.46 186.74,-124 164.38,-124 148.56,-113.46 148.56,-98.54 164.38,-88 186.74,-88 202.56,-98.54"/>
<text text-anchor="middle" x="175.56" y="-102.3" font-family="Times,serif" font-size="14.00">Q</text>
</g>
<!-- c41 -->
<g id="node19" class="node">
<title>c41</title>
<polygon fill="none" stroke="black" points="403.12,-111.5 403.12,-180.5 517.12,-180.5 517.12,-111.5 403.12,-111.5"/>
<text text-anchor="middle" x="416.62" y="-165.3" font-family="Times,serif" font-size="14.00">A</text>
<polyline fill="none" stroke="black" points="403.12,-157.5 430.12,-157.5 "/>
<text text-anchor="middle" x="416.62" y="-142.3" font-family="Times,serif" font-size="14.00">B</text>
<polyline fill="none" stroke="black" points="403.12,-134.5 430.12,-134.5 "/>
<text text-anchor="middle" x="416.62" y="-119.3" font-family="Times,serif" font-size="14.00">Y</text>
<polyline fill="none" stroke="black" points="430.12,-111.5 430.12,-180.5 "/>
<text text-anchor="middle" x="463.12" y="-149.8" font-family="Times,serif" font-size="14.00">$48.u3</text>
<text text-anchor="middle" x="463.12" y="-134.8" font-family="Times,serif" font-size="14.00">NAND</text>
<polyline fill="none" stroke="black" points="496.12,-111.5 496.12,-180.5 "/>
<text text-anchor="middle" x="506.62" y="-142.3" font-family="Times,serif" font-size="14.00"> </text>
</g>
<!-- n22&#45;&gt;c41 -->
<g id="edge38" class="edge">
<title>n22:e&#45;&gt;c41:w</title>
<path fill="none" stroke="black" d="M203.56,-106C288.67,-106 311.77,-121.7 392.04,-122.92"/>
<polygon fill="black" stroke="black" points="392.09,-126.42 402.12,-123 392.14,-119.42 392.09,-126.42"/>
</g>
<!-- c42 -->
<g id="node20" class="node">
<title>c42</title>
<polygon fill="none" stroke="black" points="403.12,-23.5 403.12,-92.5 517.12,-92.5 517.12,-23.5 403.12,-23.5"/>
<text text-anchor="middle" x="416.62" y="-77.3" font-family="Times,serif" font-size="14.00">A</text>
<polyline fill="none" stroke="black" points="403.12,-69.5 430.12,-69.5 "/>
<text text-anchor="middle" x="416.62" y="-54.3" font-family="Times,serif" font-size="14.00">B</text>
<polyline fill="none" stroke="black" points="403.12,-46.5 430.12,-46.5 "/>
<text text-anchor="middle" x="416.62" y="-31.3" font-family="Times,serif" font-size="14.00">Y</text>
<polyline fill="none" stroke="black" points="430.12,-23.5 430.12,-92.5 "/>
<text text-anchor="middle" x="463.12" y="-61.8" font-family="Times,serif" font-size="14.00">$48.u4</text>
<text text-anchor="middle" x="463.12" y="-46.8" font-family="Times,serif" font-size="14.00">NAND</text>
<polyline fill="none" stroke="black" points="496.12,-23.5 496.12,-92.5 "/>
<text text-anchor="middle" x="506.62" y="-54.3" font-family="Times,serif" font-size="14.00"> </text>
</g>
<!-- n22&#45;&gt;c42 -->
<g id="edge39" class="edge">
<title>n22:e&#45;&gt;c42:w</title>
<path fill="none" stroke="black" d="M203.56,-106C270.96,-106 285.67,-87.1 351.12,-71 370.11,-66.33 376.64,-60.38 391.94,-58.56"/>
<polygon fill="black" stroke="black" points="392.32,-62.04 402.12,-58 391.94,-55.05 392.32,-62.04"/>
</g>
<!-- n23 -->
<g id="node4" class="node">
<title>n23</title>
<polygon fill="none" stroke="black" points="202.56,-1041.54 202.56,-1056.46 186.74,-1067 164.38,-1067 148.56,-1056.46 148.56,-1041.54 164.38,-1031 186.74,-1031 202.56,-1041.54"/>
<text text-anchor="middle" x="175.56" y="-1045.3" font-family="Times,serif" font-size="14.00">R</text>
</g>
<!-- c37 -->
<g id="node15" class="node">
<title>c37</title>
<polygon fill="none" stroke="black" points="391.62,-991.5 391.62,-1060.5 528.62,-1060.5 528.62,-991.5 391.62,-991.5"/>
<text text-anchor="middle" x="405.12" y="-1045.3" font-family="Times,serif" font-size="14.00">A</text>
<polyline fill="none" stroke="black" points="391.62,-1037.5 418.62,-1037.5 "/>
<text text-anchor="middle" x="405.12" y="-1022.3" font-family="Times,serif" font-size="14.00">B</text>
<polyline fill="none" stroke="black" points="391.62,-1014.5 418.62,-1014.5 "/>
<text text-anchor="middle" x="405.12" y="-999.3" font-family="Times,serif" font-size="14.00">Y</text>
<polyline fill="none" stroke="black" points="418.62,-991.5 418.62,-1060.5 "/>
<text text-anchor="middle" x="463.12" y="-1029.8" font-family="Times,serif" font-size="14.00">$48.n8.u1</text>
<text text-anchor="middle" x="463.12" y="-1014.8" font-family="Times,serif" font-size="14.00">NAND</text>
<polyline fill="none" stroke="black" points="507.62,-991.5 507.62,-1060.5 "/>
<text text-anchor="middle" x="518.12" y="-1022.3" font-family="Times,serif" font-size="14.00"> </text>
</g>
<!-- n23&#45;&gt;c37 -->
<g id="edge40" class="edge">
<title>n23:e&#45;&gt;c37:w</title>
<path fill="none" stroke="black" d="M203.56,-1049C282.91,-1049 305.31,-1049 379.76,-1049"/>
<polygon fill="black" stroke="black" points="380.12,-1052.5 390.12,-1049 380.12,-1045.5 380.12,-1052.5"/>
</g>
<!-- n23&#45;&gt;c37 -->
<g id="edge41" class="edge">
<title>n23:e&#45;&gt;c37:w</title>
<path fill="none" stroke="black" d="M203.56,-1049C283.51,-1049 304.78,-1027.93 379.69,-1026.12"/>
<polygon fill="black" stroke="black" points="380.16,-1029.62 390.12,-1026 380.08,-1022.62 380.16,-1029.62"/>
</g>
<!-- c44 -->
<g id="node22" class="node">
<title>c44</title>
<polygon fill="none" stroke="black" points="403.12,-1079.5 403.12,-1148.5 517.12,-1148.5 517.12,-1079.5 403.12,-1079.5"/>
<text text-anchor="middle" x="416.62" y="-1133.3" font-family="Times,serif" font-size="14.00">A</text>
<polyline fill="none" stroke="black" points="403.12,-1125.5 430.12,-1125.5 "/>
<text text-anchor="middle" x="416.62" y="-1110.3" font-family="Times,serif" font-size="14.00">B</text>
<polyline fill="none" stroke="black" points="403.12,-1102.5 430.12,-1102.5 "/>
<text text-anchor="middle" x="416.62" y="-1087.3" font-family="Times,serif" font-size="14.00">Y</text>
<polyline fill="none" stroke="black" points="430.12,-1079.5 430.12,-1148.5 "/>
<text text-anchor="middle" x="463.12" y="-1117.8" font-family="Times,serif" font-size="14.00">$48.u6</text>
<text text-anchor="middle" x="463.12" y="-1102.8" font-family="Times,serif" font-size="14.00">NAND</text>
<polyline fill="none" stroke="black" points="496.12,-1079.5 496.12,-1148.5 "/>
<text text-anchor="middle" x="506.62" y="-1110.3" font-family="Times,serif" font-size="14.00"> </text>
</g>
<!-- n23&#45;&gt;c44 -->
<g id="edge42" class="edge">
<title>n23:e&#45;&gt;c44:w</title>
<path fill="none" stroke="black" d="M203.56,-1049C292.97,-1049 308.2,-1109.27 392.1,-1113.74"/>
<polygon fill="black" stroke="black" points="392.03,-1117.24 402.12,-1114 392.21,-1110.24 392.03,-1117.24"/>
</g>
<!-- c27 -->
<g id="node5" class="node">
<title>c27</title>
<polygon fill="none" stroke="black" points="391.62,-375.5 391.62,-444.5 528.62,-444.5 528.62,-375.5 391.62,-375.5"/>
<text text-anchor="middle" x="405.12" y="-429.3" font-family="Times,serif" font-size="14.00">A</text>
<polyline fill="none" stroke="black" points="391.62,-421.5 418.62,-421.5 "/>
<text text-anchor="middle" x="405.12" y="-406.3" font-family="Times,serif" font-size="14.00">B</text>
<polyline fill="none" stroke="black" points="391.62,-398.5 418.62,-398.5 "/>
<text text-anchor="middle" x="405.12" y="-383.3" font-family="Times,serif" font-size="14.00">Y</text>
<polyline fill="none" stroke="black" points="418.62,-375.5 418.62,-444.5 "/>
<text text-anchor="middle" x="463.12" y="-413.8" font-family="Times,serif" font-size="14.00">$48.n1.u1</text>
<text text-anchor="middle" x="463.12" y="-398.8" font-family="Times,serif" font-size="14.00">NAND</text>
<polyline fill="none" stroke="black" points="507.62,-375.5 507.62,-444.5 "/>
<text text-anchor="middle" x="518.12" y="-406.3" font-family="Times,serif" font-size="14.00"> </text>
</g>
<!-- c28 -->
<g id="node6" class="node">
<title>c28</title>
<polygon fill="none" stroke="black" points="387.12,-815.5 387.12,-884.5 533.12,-884.5 533.12,-815.5 387.12,-815.5"/>
<text text-anchor="middle" x="400.62" y="-869.3" font-family="Times,serif" font-size="14.00">A</text>
<polyline fill="none" stroke="black" points="387.12,-861.5 414.12,-861.5 "/>
<text text-anchor="middle" x="400.62" y="-846.3" font-family="Times,serif" font-size="14.00">B</text>
<polyline fill="none" stroke="black" points="387.12,-838.5 414.12,-838.5 "/>
<text text-anchor="middle" x="400.62" y="-823.3" font-family="Times,serif" font-size="14.00">Y</text>
<polyline fill="none" stroke="black" points="414.12,-815.5 414.12,-884.5 "/>
<text text-anchor="middle" x="463.12" y="-853.8" font-family="Times,serif" font-size="14.00">$48.n10.u1</text>
<text text-anchor="middle" x="463.12" y="-838.8" font-family="Times,serif" font-size="14.00">NAND</text>
<polyline fill="none" stroke="black" points="512.12,-815.5 512.12,-884.5 "/>
<text text-anchor="middle" x="522.62" y="-846.3" font-family="Times,serif" font-size="14.00"> </text>
</g>
<!-- c29 -->
<g id="node7" class="node">
<title>c29</title>
<polygon fill="none" stroke="black" points="387.12,-727.5 387.12,-796.5 533.12,-796.5 533.12,-727.5 387.12,-727.5"/>
<text text-anchor="middle" x="400.62" y="-781.3" font-family="Times,serif" font-size="14.00">A</text>
<polyline fill="none" stroke="black" points="387.12,-773.5 414.12,-773.5 "/>
<text text-anchor="middle" x="400.62" y="-758.3" font-family="Times,serif" font-size="14.00">B</text>
<polyline fill="none" stroke="black" points="387.12,-750.5 414.12,-750.5 "/>
<text text-anchor="middle" x="400.62" y="-735.3" font-family="Times,serif" font-size="14.00">Y</text>
<polyline fill="none" stroke="black" points="414.12,-727.5 414.12,-796.5 "/>
<text text-anchor="middle" x="463.12" y="-765.8" font-family="Times,serif" font-size="14.00">$48.n11.u1</text>
<text text-anchor="middle" x="463.12" y="-750.8" font-family="Times,serif" font-size="14.00">NAND</text>
<polyline fill="none" stroke="black" points="512.12,-727.5 512.12,-796.5 "/>
<text text-anchor="middle" x="522.62" y="-758.3" font-family="Times,serif" font-size="14.00"> </text>
</g>
<!-- c30 -->
<g id="node8" class="node">
<title>c30</title>
<polygon fill="none" stroke="black" points="387.12,-639.5 387.12,-708.5 533.12,-708.5 533.12,-639.5 387.12,-639.5"/>
<text text-anchor="middle" x="400.62" y="-693.3" font-family="Times,serif" font-size="14.00">A</text>
<polyline fill="none" stroke="black" points="387.12,-685.5 414.12,-685.5 "/>
<text text-anchor="middle" x="400.62" y="-670.3" font-family="Times,serif" font-size="14.00">B</text>
<polyline fill="none" stroke="black" points="387.12,-662.5 414.12,-662.5 "/>
<text text-anchor="middle" x="400.62" y="-647.3" font-family="Times,serif" font-size="14.00">Y</text>
<polyline fill="none" stroke="black" points="414.12,-639.5 414.12,-708.5 "/>
<text text-anchor="middle" x="463.12" y="-677.8" font-family="Times,serif" font-size="14.00">$48.n12.u1</text>
<text text-anchor="middle" x="463.12" y="-662.8" font-family="Times,serif" font-size="14.00">NAND</text>
<polyline fill="none" stroke="black" points="512.12,-639.5 512.12,-708.5 "/>
<text text-anchor="middle" x="522.62" y="-670.3" font-family="Times,serif" font-size="14.00"> </text>
</g>
<!-- c31 -->
<g id="node9" class="node">
<title>c31</title>
<polygon fill="none" stroke="black" points="387.12,-1167.5 387.12,-1236.5 533.12,-1236.5 533.12,-1167.5 387.12,-1167.5"/>
<text text-anchor="middle" x="400.62" y="-1221.3" font-family="Times,serif" font-size="14.00">A</text>
<polyline fill="none" stroke="black" points="387.12,-1213.5 414.12,-1213.5 "/>
<text text-anchor="middle" x="400.62" y="-1198.3" font-family="Times,serif" font-size="14.00">B</text>
<polyline fill="none" stroke="black" points="387.12,-1190.5 414.12,-1190.5 "/>
<text text-anchor="middle" x="400.62" y="-1175.3" font-family="Times,serif" font-size="14.00">Y</text>
<polyline fill="none" stroke="black" points="414.12,-1167.5 414.12,-1236.5 "/>
<text text-anchor="middle" x="463.12" y="-1205.8" font-family="Times,serif" font-size="14.00">$48.n13.u1</text>
<text text-anchor="middle" x="463.12" y="-1190.8" font-family="Times,serif" font-size="14.00">NAND</text>
<polyline fill="none" stroke="black" points="512.12,-1167.5 512.12,-1236.5 "/>
<text text-anchor="middle" x="522.62" y="-1198.3" font-family="Times,serif" font-size="14.00"> </text>
</g>
<!-- c32 -->
<g id="node10" class="node">
<title>c32</title>
<polygon fill="none" stroke="black" points="387.12,-463.5 387.12,-532.5 533.12,-532.5 533.12,-463.5 387.12,-463.5"/>
<text text-anchor="middle" x="400.62" y="-517.3" font-family="Times,serif" font-size="14.00">A</text>
<polyline fill="none" stroke="black" points="387.12,-509.5 414.12,-509.5 "/>
<text text-anchor="middle" x="400.62" y="-494.3" font-family="Times,serif" font-size="14.00">B</text>
<polyline fill="none" stroke="black" points="387.12,-486.5 414.12,-486.5 "/>
<text text-anchor="middle" x="400.62" y="-471.3" font-family="Times,serif" font-size="14.00">Y</text>
<polyline fill="none" stroke="black" points="414.12,-463.5 414.12,-532.5 "/>
<text text-anchor="middle" x="463.12" y="-501.8" font-family="Times,serif" font-size="14.00">$48.n14.u1</text>
<text text-anchor="middle" x="463.12" y="-486.8" font-family="Times,serif" font-size="14.00">NAND</text>
<polyline fill="none" stroke="black" points="512.12,-463.5 512.12,-532.5 "/>
<text text-anchor="middle" x="522.62" y="-494.3" font-family="Times,serif" font-size="14.00"> </text>
</g>
<!-- c34 -->
<g id="node12" class="node">
<title>c34</title>
<polygon fill="none" stroke="black" points="391.62,-1607.5 391.62,-1676.5 528.62,-1676.5 528.62,-1607.5 391.62,-1607.5"/>
<text text-anchor="middle" x="405.12" y="-1661.3" font-family="Times,serif" font-size="14.00">A</text>
<polyline fill="none" stroke="black" points="391.62,-1653.5 418.62,-1653.5 "/>
<text text-anchor="middle" x="405.12" y="-1638.3" font-family="Times,serif" font-size="14.00">B</text>
<polyline fill="none" stroke="black" points="391.62,-1630.5 418.62,-1630.5 "/>
<text text-anchor="middle" x="405.12" y="-1615.3" font-family="Times,serif" font-size="14.00">Y</text>
<polyline fill="none" stroke="black" points="418.62,-1607.5 418.62,-1676.5 "/>
<text text-anchor="middle" x="463.12" y="-1645.8" font-family="Times,serif" font-size="14.00">$48.n4.u1</text>
<text text-anchor="middle" x="463.12" y="-1630.8" font-family="Times,serif" font-size="14.00">NAND</text>
<polyline fill="none" stroke="black" points="507.62,-1607.5 507.62,-1676.5 "/>
<text text-anchor="middle" x="518.12" y="-1638.3" font-family="Times,serif" font-size="14.00"> </text>
</g>
<!-- c35 -->
<g id="node13" class="node">
<title>c35</title>
<polygon fill="none" stroke="black" points="391.62,-1519.5 391.62,-1588.5 528.62,-1588.5 528.62,-1519.5 391.62,-1519.5"/>
<text text-anchor="middle" x="405.12" y="-1573.3" font-family="Times,serif" font-size="14.00">A</text>
<polyline fill="none" stroke="black" points="391.62,-1565.5 418.62,-1565.5 "/>
<text text-anchor="middle" x="405.12" y="-1550.3" font-family="Times,serif" font-size="14.00">B</text>
<polyline fill="none" stroke="black" points="391.62,-1542.5 418.62,-1542.5 "/>
<text text-anchor="middle" x="405.12" y="-1527.3" font-family="Times,serif" font-size="14.00">Y</text>
<polyline fill="none" stroke="black" points="418.62,-1519.5 418.62,-1588.5 "/>
<text text-anchor="middle" x="463.12" y="-1557.8" font-family="Times,serif" font-size="14.00">$48.n5.u1</text>
<text text-anchor="middle" x="463.12" y="-1542.8" font-family="Times,serif" font-size="14.00">NAND</text>
<polyline fill="none" stroke="black" points="507.62,-1519.5 507.62,-1588.5 "/>
<text text-anchor="middle" x="518.12" y="-1550.3" font-family="Times,serif" font-size="14.00"> </text>
</g>
<!-- c36 -->
<g id="node14" class="node">
<title>c36</title>
<polygon fill="none" stroke="black" points="391.62,-1343.5 391.62,-1412.5 528.62,-1412.5 528.62,-1343.5 391.62,-1343.5"/>
<text text-anchor="middle" x="405.12" y="-1397.3" font-family="Times,serif" font-size="14.00">A</text>
<polyline fill="none" stroke="black" points="391.62,-1389.5 418.62,-1389.5 "/>
<text text-anchor="middle" x="405.12" y="-1374.3" font-family="Times,serif" font-size="14.00">B</text>
<polyline fill="none" stroke="black" points="391.62,-1366.5 418.62,-1366.5 "/>
<text text-anchor="middle" x="405.12" y="-1351.3" font-family="Times,serif" font-size="14.00">Y</text>
<polyline fill="none" stroke="black" points="418.62,-1343.5 418.62,-1412.5 "/>
<text text-anchor="middle" x="463.12" y="-1381.8" font-family="Times,serif" font-size="14.00">$48.n7.u1</text>
<text text-anchor="middle" x="463.12" y="-1366.8" font-family="Times,serif" font-size="14.00">NAND</text>
<polyline fill="none" stroke="black" points="507.62,-1343.5 507.62,-1412.5 "/>
<text text-anchor="middle" x="518.12" y="-1374.3" font-family="Times,serif" font-size="14.00"> </text>
</g>
<!-- c38 -->
<g id="node16" class="node">
<title>c38</title>
<polygon fill="none" stroke="black" points="391.62,-903.5 391.62,-972.5 528.62,-972.5 528.62,-903.5 391.62,-903.5"/>
<text text-anchor="middle" x="405.12" y="-957.3" font-family="Times,serif" font-size="14.00">A</text>
<polyline fill="none" stroke="black" points="391.62,-949.5 418.62,-949.5 "/>
<text text-anchor="middle" x="405.12" y="-934.3" font-family="Times,serif" font-size="14.00">B</text>
<polyline fill="none" stroke="black" points="391.62,-926.5 418.62,-926.5 "/>
<text text-anchor="middle" x="405.12" y="-911.3" font-family="Times,serif" font-size="14.00">Y</text>
<polyline fill="none" stroke="black" points="418.62,-903.5 418.62,-972.5 "/>
<text text-anchor="middle" x="463.12" y="-941.8" font-family="Times,serif" font-size="14.00">$48.n9.u1</text>
<text text-anchor="middle" x="463.12" y="-926.8" font-family="Times,serif" font-size="14.00">NAND</text>
<polyline fill="none" stroke="black" points="507.62,-903.5 507.62,-972.5 "/>
<text text-anchor="middle" x="518.12" y="-934.3" font-family="Times,serif" font-size="14.00"> </text>
</g>
<!-- c39 -->
<g id="node17" class="node">
<title>c39</title>
<polygon fill="none" stroke="black" points="403.12,-287.5 403.12,-356.5 517.12,-356.5 517.12,-287.5 403.12,-287.5"/>
<text text-anchor="middle" x="416.62" y="-341.3" font-family="Times,serif" font-size="14.00">A</text>
<polyline fill="none" stroke="black" points="403.12,-333.5 430.12,-333.5 "/>
<text text-anchor="middle" x="416.62" y="-318.3" font-family="Times,serif" font-size="14.00">B</text>
<polyline fill="none" stroke="black" points="403.12,-310.5 430.12,-310.5 "/>
<text text-anchor="middle" x="416.62" y="-295.3" font-family="Times,serif" font-size="14.00">Y</text>
<polyline fill="none" stroke="black" points="430.12,-287.5 430.12,-356.5 "/>
<text text-anchor="middle" x="463.12" y="-325.8" font-family="Times,serif" font-size="14.00">$48.u1</text>
<text text-anchor="middle" x="463.12" y="-310.8" font-family="Times,serif" font-size="14.00">NAND</text>
<polyline fill="none" stroke="black" points="496.12,-287.5 496.12,-356.5 "/>
<text text-anchor="middle" x="506.62" y="-318.3" font-family="Times,serif" font-size="14.00"> </text>
</g>
<!-- c40 -->
<g id="node18" class="node">
<title>c40</title>
<polygon fill="none" stroke="black" points="403.12,-199.5 403.12,-268.5 517.12,-268.5 517.12,-199.5 403.12,-199.5"/>
<text text-anchor="middle" x="416.62" y="-253.3" font-family="Times,serif" font-size="14.00">A</text>
<polyline fill="none" stroke="black" points="403.12,-245.5 430.12,-245.5 "/>
<text text-anchor="middle" x="416.62" y="-230.3" font-family="Times,serif" font-size="14.00">B</text>
<polyline fill="none" stroke="black" points="403.12,-222.5 430.12,-222.5 "/>
<text text-anchor="middle" x="416.62" y="-207.3" font-family="Times,serif" font-size="14.00">Y</text>
<polyline fill="none" stroke="black" points="430.12,-199.5 430.12,-268.5 "/>
<text text-anchor="middle" x="463.12" y="-237.8" font-family="Times,serif" font-size="14.00">$48.u2</text>
<text text-anchor="middle" x="463.12" y="-222.8" font-family="Times,serif" font-size="14.00">NAND</text>
<polyline fill="none" stroke="black" points="496.12,-199.5 496.12,-268.5 "/>
<text text-anchor="middle" x="506.62" y="-230.3" font-family="Times,serif" font-size="14.00"> </text>
</g>
<!-- c46 -->
<g id="node24" class="node">
<title>c46</title>
<polygon fill="none" stroke="black" points="403.12,-1255.5 403.12,-1324.5 517.12,-1324.5 517.12,-1255.5 403.12,-1255.5"/>
<text text-anchor="middle" x="416.62" y="-1309.3" font-family="Times,serif" font-size="14.00">A</text>
<polyline fill="none" stroke="black" points="403.12,-1301.5 430.12,-1301.5 "/>
<text text-anchor="middle" x="416.62" y="-1286.3" font-family="Times,serif" font-size="14.00">B</text>
<polyline fill="none" stroke="black" points="403.12,-1278.5 430.12,-1278.5 "/>
<text text-anchor="middle" x="416.62" y="-1263.3" font-family="Times,serif" font-size="14.00">Y</text>
<polyline fill="none" stroke="black" points="430.12,-1255.5 430.12,-1324.5 "/>
<text text-anchor="middle" x="463.12" y="-1293.8" font-family="Times,serif" font-size="14.00">$48.u8</text>
<text text-anchor="middle" x="463.12" y="-1278.8" font-family="Times,serif" font-size="14.00">NAND</text>
<polyline fill="none" stroke="black" points="496.12,-1255.5 496.12,-1324.5 "/>
<text text-anchor="middle" x="506.62" y="-1286.3" font-family="Times,serif" font-size="14.00"> </text>
</g>
<!-- n1 -->
<g id="node25" class="node">
<title>n1</title>
<polygon fill="none" stroke="black" points="175.56,-62 92.61,-44 175.56,-26 258.51,-44 175.56,-62"/>
<text text-anchor="middle" x="175.56" y="-40.3" font-family="Times,serif" font-size="14.00">$48.QBAR</text>
</g>
<!-- n1&#45;&gt;c41 -->
<g id="edge1" class="edge">
<title>n1:e&#45;&gt;c41:w</title>
<path fill="none" stroke="black" d="M259.56,-44C303.12,-44 316.24,-52.89 351.12,-79 377.92,-99.06 367.63,-136.84 391.96,-144.59"/>
<polygon fill="black" stroke="black" points="391.73,-148.09 402.12,-146 392.69,-141.16 391.73,-148.09"/>
</g>
<!-- n1&#45;&gt;c42 -->
<g id="edge2" class="edge">
<title>n1:e&#45;&gt;c42:w</title>
<path fill="none" stroke="black" d="M259.56,-44C319.57,-44 336.78,-35.96 392.12,-35.08"/>
<polygon fill="black" stroke="black" points="392.15,-38.58 402.12,-35 392.09,-31.58 392.15,-38.58"/>
</g>
<!-- n10 -->
<g id="node26" class="node">
<title>n10</title>
<polygon fill="none" stroke="black" points="175.56,-1524 95.63,-1506 175.56,-1488 255.49,-1506 175.56,-1524"/>
<text text-anchor="middle" x="175.56" y="-1502.3" font-family="Times,serif" font-size="14.00">$48.not_3</text>
</g>
<!-- n10&#45;&gt;c35 -->
<g id="edge3" class="edge">
<title>n10:e&#45;&gt;c35:w</title>
<path fill="none" stroke="black" d="M256.56,-1506C313.41,-1506 328.07,-1528.16 379.97,-1530.75"/>
<polygon fill="black" stroke="black" points="380.04,-1534.26 390.12,-1531 380.21,-1527.26 380.04,-1534.26"/>
</g>
<!-- n10&#45;&gt;c43 -->
<g id="edge4" class="edge">
<title>n10:e&#45;&gt;c43:w</title>
<path fill="none" stroke="black" d="M256.56,-1506C318.13,-1506 335.16,-1490.81 391.86,-1489.15"/>
<polygon fill="black" stroke="black" points="392.17,-1492.64 402.12,-1489 392.07,-1485.64 392.17,-1492.64"/>
</g>
<!-- n11 -->
<g id="node27" class="node">
<title>n11</title>
<polygon fill="none" stroke="black" points="175.56,-979 95.63,-961 175.56,-943 255.49,-961 175.56,-979"/>
<text text-anchor="middle" x="175.56" y="-957.3" font-family="Times,serif" font-size="14.00">$48.not_4</text>
</g>
<!-- n11&#45;&gt;c37 -->
<g id="edge5" class="edge">
<title>n11:e&#45;&gt;c37:w</title>
<path fill="none" stroke="black" d="M256.56,-961C315.26,-961 326.69,-998.38 380.04,-1002.61"/>
<polygon fill="black" stroke="black" points="379.99,-1006.11 390.12,-1003 380.26,-999.12 379.99,-1006.11"/>
</g>
<!-- n11&#45;&gt;c38 -->
<g id="edge6" class="edge">
<title>n11:e&#45;&gt;c38:w</title>
<path fill="none" stroke="black" d="M256.56,-961C312.32,-961 328.8,-961 379.81,-961"/>
<polygon fill="black" stroke="black" points="380.12,-964.5 390.12,-961 380.12,-957.5 380.12,-964.5"/>
</g>
<!-- n11&#45;&gt;c38 -->
<g id="edge7" class="edge">
<title>n11:e&#45;&gt;c38:w</title>
<path fill="none" stroke="black" d="M256.56,-961C313.26,-961 328.19,-940.62 380,-938.23"/>
<polygon fill="black" stroke="black" points="380.2,-941.72 390.12,-938 380.04,-934.73 380.2,-941.72"/>
</g>
<!-- n12 -->
<g id="node28" class="node">
<title>n12</title>
<polygon fill="none" stroke="black" points="175.56,-891 95.63,-873 175.56,-855 255.49,-873 175.56,-891"/>
<text text-anchor="middle" x="175.56" y="-869.3" font-family="Times,serif" font-size="14.00">$48.not_5</text>
</g>
<!-- n12&#45;&gt;c28 -->
<g id="edge8" class="edge">
<title>n12:e&#45;&gt;c28:w</title>
<path fill="none" stroke="black" d="M256.56,-873C311.07,-873 327.18,-873 377.04,-873"/>
<polygon fill="black" stroke="black" points="377.12,-876.5 387.12,-873 377.12,-869.5 377.12,-876.5"/>
</g>
<!-- n12&#45;&gt;c28 -->
<g id="edge9" class="edge">
<title>n12:e&#45;&gt;c28:w</title>
<path fill="none" stroke="black" d="M256.56,-873C311.91,-873 326.49,-852.7 376.9,-850.24"/>
<polygon fill="black" stroke="black" points="377.2,-853.74 387.12,-850 377.04,-846.74 377.2,-853.74"/>
</g>
<!-- n12&#45;&gt;c38 -->
<g id="edge10" class="edge">
<title>n12:e&#45;&gt;c38:w</title>
<path fill="none" stroke="black" d="M256.56,-873C315.26,-873 326.69,-910.38 380.04,-914.61"/>
<polygon fill="black" stroke="black" points="379.99,-918.11 390.12,-915 380.26,-911.12 379.99,-918.11"/>
</g>
<!-- n13 -->
<g id="node29" class="node">
<title>n13</title>
<polygon fill="none" stroke="black" points="175.56,-813 95.63,-795 175.56,-777 255.49,-795 175.56,-813"/>
<text text-anchor="middle" x="175.56" y="-791.3" font-family="Times,serif" font-size="14.00">$48.not_6</text>
</g>
<!-- n13&#45;&gt;c28 -->
<g id="edge11" class="edge">
<title>n13:e&#45;&gt;c28:w</title>
<path fill="none" stroke="black" d="M256.56,-795C312.8,-795 325.91,-823.36 377.1,-826.68"/>
<polygon fill="black" stroke="black" points="377.01,-830.18 387.12,-827 377.23,-823.19 377.01,-830.18"/>
</g>
<!-- n13&#45;&gt;c29 -->
<g id="edge12" class="edge">
<title>n13:e&#45;&gt;c29:w</title>
<path fill="none" stroke="black" d="M256.56,-795C311.23,-795 327.04,-786.17 377.01,-785.11"/>
<polygon fill="black" stroke="black" points="377.16,-788.6 387.12,-785 377.08,-781.6 377.16,-788.6"/>
</g>
<!-- n13&#45;&gt;c29 -->
<g id="edge13" class="edge">
<title>n13:e&#45;&gt;c29:w</title>
<path fill="none" stroke="black" d="M256.56,-795C283.45,-795 343.25,-768.36 376.82,-762.95"/>
<polygon fill="black" stroke="black" points="377.48,-766.41 387.12,-762 376.84,-759.44 377.48,-766.41"/>
</g>
<!-- n14 -->
<g id="node30" class="node">
<title>n14</title>
<polygon fill="none" stroke="black" points="175.56,-705 95.63,-687 175.56,-669 255.49,-687 175.56,-705"/>
<text text-anchor="middle" x="175.56" y="-683.3" font-family="Times,serif" font-size="14.00">$48.not_7</text>
</g>
<!-- n14&#45;&gt;c29 -->
<g id="edge14" class="edge">
<title>n14:e&#45;&gt;c29:w</title>
<path fill="none" stroke="black" d="M256.56,-687C300.26,-687 311.62,-695.28 351.12,-714 365.01,-720.58 367.26,-732.34 377.17,-737.01"/>
<polygon fill="black" stroke="black" points="376.63,-740.47 387.12,-739 378,-733.61 376.63,-740.47"/>
</g>
<!-- n14&#45;&gt;c30 -->
<g id="edge15" class="edge">
<title>n14:e&#45;&gt;c30:w</title>
<path fill="none" stroke="black" d="M256.56,-687C311.23,-687 327.04,-695.83 377.01,-696.89"/>
<polygon fill="black" stroke="black" points="377.08,-700.4 387.12,-697 377.16,-693.4 377.08,-700.4"/>
</g>
<!-- n14&#45;&gt;c30 -->
<g id="edge16" class="edge">
<title>n14:e&#45;&gt;c30:w</title>
<path fill="none" stroke="black" d="M256.56,-687C311.34,-687 326.96,-675.53 376.99,-674.14"/>
<polygon fill="black" stroke="black" points="377.17,-677.64 387.12,-674 377.07,-670.64 377.17,-677.64"/>
</g>
<!-- n15 -->
<g id="node31" class="node">
<title>n15</title>
<polygon fill="none" stroke="black" points="175.56,-759 95.63,-741 175.56,-723 255.49,-741 175.56,-759"/>
<text text-anchor="middle" x="175.56" y="-737.3" font-family="Times,serif" font-size="14.00">$48.not_8</text>
</g>
<!-- n15&#45;&gt;c30 -->
<g id="edge17" class="edge">
<title>n15:e&#45;&gt;c30:w</title>
<path fill="none" stroke="black" d="M256.56,-741C300.26,-741 316.72,-740.97 351.12,-714 373.13,-696.75 359.78,-662.04 376.88,-653.13"/>
<polygon fill="black" stroke="black" points="378.04,-656.46 387.12,-651 376.62,-649.61 378.04,-656.46"/>
</g>
<!-- n15&#45;&gt;c44 -->
<g id="edge18" class="edge">
<title>n15:e&#45;&gt;c44:w</title>
<path fill="none" stroke="black" d="M256.56,-741C300.26,-741 322.77,-734.73 351.12,-768 402.39,-828.18 326.74,-1110 391.95,-1135.2"/>
<polygon fill="black" stroke="black" points="391.66,-1138.7 402.12,-1137 392.88,-1131.81 391.66,-1138.7"/>
</g>
<!-- n16 -->
<g id="node32" class="node">
<title>n16</title>
<polygon fill="none" stroke="black" points="175.56,-306 93.95,-288 175.56,-270 257.17,-288 175.56,-306"/>
<text text-anchor="middle" x="175.56" y="-284.3" font-family="Times,serif" font-size="14.00">$48.not_D</text>
</g>
<!-- n16&#45;&gt;c27 -->
<g id="edge19" class="edge">
<title>n16:e&#45;&gt;c27:w</title>
<path fill="none" stroke="black" d="M258.56,-288C301.8,-288 317.63,-290.64 351.12,-318 375.31,-337.76 359.57,-376.73 380.25,-385.3"/>
<polygon fill="black" stroke="black" points="379.67,-388.76 390.12,-387 380.85,-381.86 379.67,-388.76"/>
</g>
<!-- n16&#45;&gt;c40 -->
<g id="edge20" class="edge">
<title>n16:e&#45;&gt;c40:w</title>
<path fill="none" stroke="black" d="M258.56,-288C302.23,-288 310.35,-270.65 351.12,-255 370.43,-247.59 376.01,-237.73 392.01,-234.83"/>
<polygon fill="black" stroke="black" points="392.44,-238.31 402.12,-234 391.86,-231.33 392.44,-238.31"/>
</g>
<!-- n17 -->
<g id="node33" class="node">
<title>n17</title>
<polygon fill="none" stroke="black" points="175.56,-1419 33.12,-1401 175.56,-1383 318,-1401 175.56,-1419"/>
<text text-anchor="middle" x="175.56" y="-1397.3" font-family="Times,serif" font-size="14.00">$48.not_clock_edge</text>
</g>
<!-- n17&#45;&gt;c36 -->
<g id="edge21" class="edge">
<title>n17:e&#45;&gt;c36:w</title>
<path fill="none" stroke="black" d="M319.56,-1401C347.24,-1401 356.6,-1401 379.99,-1401"/>
<polygon fill="black" stroke="black" points="380.12,-1404.5 390.12,-1401 380.12,-1397.5 380.12,-1404.5"/>
</g>
<!-- n17&#45;&gt;c36 -->
<g id="edge22" class="edge">
<title>n17:e&#45;&gt;c36:w</title>
<path fill="none" stroke="black" d="M319.56,-1401C348.81,-1401 355.73,-1382.92 379.92,-1378.82"/>
<polygon fill="black" stroke="black" points="380.43,-1382.29 390.12,-1378 379.87,-1375.31 380.43,-1382.29"/>
</g>
<!-- n17&#45;&gt;c43 -->
<g id="edge23" class="edge">
<title>n17:e&#45;&gt;c43:w</title>
<path fill="none" stroke="black" d="M319.56,-1401C357.03,-1401 360.58,-1435.79 391.95,-1442.04"/>
<polygon fill="black" stroke="black" points="391.83,-1445.55 402.12,-1443 392.49,-1438.58 391.83,-1445.55"/>
</g>
<!-- n17&#45;&gt;c46 -->
<g id="edge24" class="edge">
<title>n17:e&#45;&gt;c46:w</title>
<path fill="none" stroke="black" d="M319.56,-1401C377.32,-1401 345.15,-1303.03 392.03,-1291.17"/>
<polygon fill="black" stroke="black" points="392.59,-1294.63 402.12,-1290 391.78,-1287.68 392.59,-1294.63"/>
</g>
<!-- n18 -->
<g id="node34" class="node">
<title>n18</title>
<polygon fill="none" stroke="black" points="175.56,-1231 32.28,-1213 175.56,-1195 318.84,-1213 175.56,-1231"/>
<text text-anchor="middle" x="175.56" y="-1209.3" font-family="Times,serif" font-size="14.00">$48.not_reset_edge</text>
</g>
<!-- n18&#45;&gt;c31 -->
<g id="edge25" class="edge">
<title>n18:e&#45;&gt;c31:w</title>
<path fill="none" stroke="black" d="M320.56,-1213C346.86,-1213 355.08,-1222.19 376.86,-1224.48"/>
<polygon fill="black" stroke="black" points="376.95,-1227.99 387.12,-1225 377.31,-1221 376.95,-1227.99"/>
</g>
<!-- n18&#45;&gt;c31 -->
<g id="edge26" class="edge">
<title>n18:e&#45;&gt;c31:w</title>
<path fill="none" stroke="black" d="M320.56,-1213C346.79,-1213 355.12,-1204.58 376.88,-1202.47"/>
<polygon fill="black" stroke="black" points="377.29,-1205.96 387.12,-1202 376.97,-1198.96 377.29,-1205.96"/>
</g>
<!-- n18&#45;&gt;c44 -->
<g id="edge27" class="edge">
<title>n18:e&#45;&gt;c44:w</title>
<path fill="none" stroke="black" d="M320.56,-1213C382.09,-1213 342.07,-1104.43 392.09,-1092.13"/>
<polygon fill="black" stroke="black" points="392.57,-1095.6 402.12,-1091 391.79,-1088.64 392.57,-1095.6"/>
</g>
<!-- n18&#45;&gt;c45 -->
<g id="edge28" class="edge">
<title>n18:e&#45;&gt;c45:w</title>
<path fill="none" stroke="black" d="M320.56,-1213C338.68,-1213 343.14,-1202.27 351.12,-1186 377.96,-1131.26 341.96,-662.48 392.79,-613.19"/>
<polygon fill="black" stroke="black" points="394.43,-616.29 402.12,-609 391.56,-609.9 394.43,-616.29"/>
</g>
<!-- n18&#45;&gt;c46 -->
<g id="edge29" class="edge">
<title>n18:e&#45;&gt;c46:w</title>
<path fill="none" stroke="black" d="M320.56,-1213C374.21,-1213 348.66,-1300.52 392.11,-1311.81"/>
<polygon fill="black" stroke="black" points="391.77,-1315.29 402.12,-1313 392.6,-1308.34 391.77,-1315.29"/>
</g>
<!-- n19 -->
<g id="node35" class="node">
<title>n19</title>
<polygon fill="none" stroke="black" points="175.56,-1177 59.93,-1159 175.56,-1141 291.19,-1159 175.56,-1177"/>
<text text-anchor="middle" x="175.56" y="-1155.3" font-family="Times,serif" font-size="14.00">$48.reset_edge</text>
</g>
<!-- n19&#45;&gt;c31 -->
<g id="edge30" class="edge">
<title>n19:e&#45;&gt;c31:w</title>
<path fill="none" stroke="black" d="M292.56,-1159C331.82,-1159 342.42,-1175.71 376.76,-1178.58"/>
<polygon fill="black" stroke="black" points="376.99,-1182.09 387.12,-1179 377.27,-1175.1 376.99,-1182.09"/>
</g>
<!-- n2 -->
<g id="node36" class="node">
<title>n2</title>
<polygon fill="none" stroke="black" points="175.56,-539 90.93,-521 175.56,-503 260.18,-521 175.56,-539"/>
<text text-anchor="middle" x="175.56" y="-517.3" font-family="Times,serif" font-size="14.00">$48.and_R</text>
</g>
<!-- n2&#45;&gt;c32 -->
<g id="edge31" class="edge">
<title>n2:e&#45;&gt;c32:w</title>
<path fill="none" stroke="black" d="M261.56,-521C313.77,-521 329.34,-521 376.83,-521"/>
<polygon fill="black" stroke="black" points="377.12,-524.5 387.12,-521 377.12,-517.5 377.12,-524.5"/>
</g>
<!-- n2&#45;&gt;c32 -->
<g id="edge32" class="edge">
<title>n2:e&#45;&gt;c32:w</title>
<path fill="none" stroke="black" d="M261.56,-521C314.75,-521 328.7,-500.79 376.98,-498.26"/>
<polygon fill="black" stroke="black" points="377.21,-501.75 387.12,-498 377.03,-494.76 377.21,-501.75"/>
</g>
<!-- n2&#45;&gt;c45 -->
<g id="edge33" class="edge">
<title>n2:e&#45;&gt;c45:w</title>
<path fill="none" stroke="black" d="M261.56,-521C323.19,-521 335.64,-558.53 391.9,-562.64"/>
<polygon fill="black" stroke="black" points="392,-566.14 402.12,-563 392.25,-559.15 392,-566.14"/>
</g>
<!-- n3 -->
<g id="node37" class="node">
<title>n3</title>
<polygon fill="none" stroke="black" points="175.56,-1365 60.77,-1347 175.56,-1329 290.35,-1347 175.56,-1365"/>
<text text-anchor="middle" x="175.56" y="-1343.3" font-family="Times,serif" font-size="14.00">$48.clock_edge</text>
</g>
<!-- n3&#45;&gt;c36 -->
<g id="edge43" class="edge">
<title>n3:e&#45;&gt;c36:w</title>
<path fill="none" stroke="black" d="M291.56,-1347C331.9,-1347 344.2,-1353.74 379.94,-1354.85"/>
<polygon fill="black" stroke="black" points="380.07,-1358.35 390.12,-1355 380.17,-1351.35 380.07,-1358.35"/>
</g>
<!-- n4 -->
<g id="node38" class="node">
<title>n4</title>
<polygon fill="none" stroke="black" points="175.56,-363 -0.06,-345 175.56,-327 351.18,-345 175.56,-363"/>
<text text-anchor="middle" x="175.56" y="-341.3" font-family="Times,serif" font-size="14.00">$48.clock_edge_or_reset</text>
</g>
<!-- n4&#45;&gt;c39 -->
<g id="edge44" class="edge">
<title>n4:e&#45;&gt;c39:w</title>
<path fill="none" stroke="black" d="M351.12,-345C369.89,-345 377,-345 391.76,-345"/>
<polygon fill="black" stroke="black" points="392.12,-348.5 402.12,-345 392.12,-341.5 392.12,-348.5"/>
</g>
<!-- n4&#45;&gt;c40 -->
<g id="edge45" class="edge">
<title>n4:e&#45;&gt;c40:w</title>
<path fill="none" stroke="black" d="M351.12,-345C392.44,-345 363.06,-271.48 392.23,-258.84"/>
<polygon fill="black" stroke="black" points="392.93,-262.27 402.12,-257 391.65,-255.39 392.93,-262.27"/>
</g>
<!-- n4&#45;&gt;c46 -->
<g id="edge46" class="edge">
<title>n4:e&#45;&gt;c46:w</title>
<path fill="none" stroke="black" d="M351.12,-345C401.21,-345 370.88,-1198.61 387.12,-1246 389.33,-1252.44 390.16,-1258.64 392.87,-1262.61"/>
<polygon fill="black" stroke="black" points="391.58,-1265.87 402.12,-1267 394.59,-1259.55 391.58,-1265.87"/>
</g>
<!-- n5 -->
<g id="node39" class="node">
<title>n5</title>
<polygon fill="none" stroke="black" points="175.56,-439 118.58,-421 175.56,-403 232.53,-421 175.56,-439"/>
<text text-anchor="middle" x="175.56" y="-417.3" font-family="Times,serif" font-size="14.00">$48.in</text>
</g>
<!-- n5&#45;&gt;c27 -->
<g id="edge47" class="edge">
<title>n5:e&#45;&gt;c27:w</title>
<path fill="none" stroke="black" d="M233.56,-421C299.8,-421 318.47,-431.81 379.88,-432.91"/>
<polygon fill="black" stroke="black" points="380.09,-436.41 390.12,-433 380.15,-429.41 380.09,-436.41"/>
</g>
<!-- n5&#45;&gt;c27 -->
<g id="edge48" class="edge">
<title>n5:e&#45;&gt;c27:w</title>
<path fill="none" stroke="black" d="M233.56,-421C299.77,-421 318.5,-411.09 379.89,-410.08"/>
<polygon fill="black" stroke="black" points="380.15,-413.58 390.12,-410 380.09,-406.58 380.15,-413.58"/>
</g>
<!-- n5&#45;&gt;c32 -->
<g id="edge49" class="edge">
<title>n5:e&#45;&gt;c32:w</title>
<path fill="none" stroke="black" d="M233.56,-421C302.37,-421 313.76,-469.86 376.96,-474.63"/>
<polygon fill="black" stroke="black" points="377,-478.13 387.12,-475 377.25,-471.13 377,-478.13"/>
</g>
<!-- n5&#45;&gt;c39 -->
<g id="edge50" class="edge">
<title>n5:e&#45;&gt;c39:w</title>
<path fill="none" stroke="black" d="M233.56,-421C290.16,-421 303.93,-403.27 351.12,-372 374.37,-356.59 371.63,-329.64 392.17,-323.34"/>
<polygon fill="black" stroke="black" points="392.68,-326.81 402.12,-322 391.74,-319.87 392.68,-326.81"/>
</g>
<!-- n6 -->
<g id="node40" class="node">
<title>n6</title>
<polygon fill="none" stroke="black" points="175.56,-246 63.28,-228 175.56,-210 287.83,-228 175.56,-246"/>
<text text-anchor="middle" x="175.56" y="-224.3" font-family="Times,serif" font-size="14.00">$48.nand1_out</text>
</g>
<!-- n6&#45;&gt;c39 -->
<g id="edge51" class="edge">
<title>n6:e&#45;&gt;c39:w</title>
<path fill="none" stroke="black" d="M288.56,-228C319.99,-228 324.53,-244.23 351.12,-261 371.66,-273.96 373.69,-292.71 391.79,-297.73"/>
<polygon fill="black" stroke="black" points="391.76,-301.25 402.12,-299 392.62,-294.3 391.76,-301.25"/>
</g>
<!-- n6&#45;&gt;c41 -->
<g id="edge52" class="edge">
<title>n6:e&#45;&gt;c41:w</title>
<path fill="none" stroke="black" d="M288.56,-228C341.88,-228 345.04,-176.14 392.09,-169.66"/>
<polygon fill="black" stroke="black" points="392.37,-173.15 402.12,-169 391.91,-166.17 392.37,-173.15"/>
</g>
<!-- n7 -->
<g id="node41" class="node">
<title>n7</title>
<polygon fill="none" stroke="black" points="175.56,-181 63.28,-163 175.56,-145 287.83,-163 175.56,-181"/>
<text text-anchor="middle" x="175.56" y="-159.3" font-family="Times,serif" font-size="14.00">$48.nand2_out</text>
</g>
<!-- n7&#45;&gt;c40 -->
<g id="edge53" class="edge">
<title>n7:e&#45;&gt;c40:w</title>
<path fill="none" stroke="black" d="M288.56,-163C339.82,-163 346.6,-205.01 392.13,-210.43"/>
<polygon fill="black" stroke="black" points="391.93,-213.92 402.12,-211 392.33,-206.93 391.93,-213.92"/>
</g>
<!-- n7&#45;&gt;c42 -->
<g id="edge54" class="edge">
<title>n7:e&#45;&gt;c42:w</title>
<path fill="none" stroke="black" d="M288.56,-163C319.39,-163 326.04,-150.94 351.12,-133 374.26,-116.44 371.11,-88.82 391.99,-82.37"/>
<polygon fill="black" stroke="black" points="392.68,-85.81 402.12,-81 391.74,-78.88 392.68,-85.81"/>
</g>
<!-- n8 -->
<g id="node42" class="node">
<title>n8</title>
<polygon fill="none" stroke="black" points="175.56,-1683 95.63,-1665 175.56,-1647 255.49,-1665 175.56,-1683"/>
<text text-anchor="middle" x="175.56" y="-1661.3" font-family="Times,serif" font-size="14.00">$48.not_1</text>
</g>
<!-- n8&#45;&gt;c33 -->
<g id="edge55" class="edge">
<title>n8:e&#45;&gt;c33:w</title>
<path fill="none" stroke="black" d="M256.56,-1665C315.26,-1665 326.69,-1702.38 380.04,-1706.61"/>
<polygon fill="black" stroke="black" points="379.99,-1710.11 390.12,-1707 380.26,-1703.12 379.99,-1710.11"/>
</g>
<!-- n8&#45;&gt;c34 -->
<g id="edge56" class="edge">
<title>n8:e&#45;&gt;c34:w</title>
<path fill="none" stroke="black" d="M256.56,-1665C312.32,-1665 328.8,-1665 379.81,-1665"/>
<polygon fill="black" stroke="black" points="380.12,-1668.5 390.12,-1665 380.12,-1661.5 380.12,-1668.5"/>
</g>
<!-- n8&#45;&gt;c34 -->
<g id="edge57" class="edge">
<title>n8:e&#45;&gt;c34:w</title>
<path fill="none" stroke="black" d="M256.56,-1665C313.26,-1665 328.19,-1644.62 380,-1642.23"/>
<polygon fill="black" stroke="black" points="380.2,-1645.72 390.12,-1642 380.04,-1638.73 380.2,-1645.72"/>
</g>
<!-- n9 -->
<g id="node43" class="node">
<title>n9</title>
<polygon fill="none" stroke="black" points="175.56,-1595 95.63,-1577 175.56,-1559 255.49,-1577 175.56,-1595"/>
<text text-anchor="middle" x="175.56" y="-1573.3" font-family="Times,serif" font-size="14.00">$48.not_2</text>
</g>
<!-- n9&#45;&gt;c34 -->
<g id="edge58" class="edge">
<title>n9:e&#45;&gt;c34:w</title>
<path fill="none" stroke="black" d="M256.56,-1577C315.26,-1577 326.69,-1614.38 380.04,-1618.61"/>
<polygon fill="black" stroke="black" points="379.99,-1622.11 390.12,-1619 380.26,-1615.12 379.99,-1622.11"/>
</g>
<!-- n9&#45;&gt;c35 -->
<g id="edge59" class="edge">
<title>n9:e&#45;&gt;c35:w</title>
<path fill="none" stroke="black" d="M256.56,-1577C312.32,-1577 328.8,-1577 379.81,-1577"/>
<polygon fill="black" stroke="black" points="380.12,-1580.5 390.12,-1577 380.12,-1573.5 380.12,-1580.5"/>
</g>
<!-- n9&#45;&gt;c35 -->
<g id="edge60" class="edge">
<title>n9:e&#45;&gt;c35:w</title>
<path fill="none" stroke="black" d="M256.56,-1577C313.26,-1577 328.19,-1556.62 380,-1554.23"/>
<polygon fill="black" stroke="black" points="380.2,-1557.72 390.12,-1554 380.04,-1550.73 380.2,-1557.72"/>
</g>
</g>
</svg>
