<?xml version="1.0" encoding="UTF-8" standalone="no"?>
<!DOCTYPE svg PUBLIC "-//W3C//DTD SVG 1.1//EN"
 "http://www.w3.org/Graphics/SVG/1.1/DTD/svg11.dtd">
<!-- Generated by graphviz version 2.43.0 (0)
 -->
<!-- Title: inverter Pages: 1 -->
<svg width="214pt" height="121pt"
 viewBox="0.00 0.00 214.28 121.00" xmlns="http://www.w3.org/2000/svg" xmlns:xlink="http://www.w3.org/1999/xlink">
<g id="graph0" class="graph" transform="scale(1 1) rotate(0) translate(4 117)">
<title>inverter</title>
<polygon fill="white" stroke="transparent" points="-4,4 -4,-117 210.28,-117 210.28,4 -4,4"/>
<text text-anchor="middle" x="103.14" y="-7.8" font-family="Times,serif" font-size="14.00">inverter</text>
<!-- n1 -->
<g id="node1" class="node">
<title>n1</title>
<polygon fill="none" stroke="black" points="55.14,-87.54 55.14,-102.46 39.32,-113 16.96,-113 1.14,-102.46 1.14,-87.54 16.96,-77 39.32,-77 55.14,-87.54"/>
<text text-anchor="middle" x="28.14" y="-91.3" font-family="Times,serif" font-size="14.00">in</text>
</g>
<!-- c6 -->
<g id="node3" class="node">
<title>c6</title>
<polygon fill="none" stroke="black" points="92.28,-37.5 92.28,-106.5 206.28,-106.5 206.28,-37.5 92.28,-37.5"/>
<text text-anchor="middle" x="105.78" y="-91.3" font-family="Times,serif" font-size="14.00">A</text>
<polyline fill="none" stroke="black" points="92.28,-83.5 119.28,-83.5 "/>
<text text-anchor="middle" x="105.78" y="-68.3" font-family="Times,serif" font-size="14.00">B</text>
<polyline fill="none" stroke="black" points="92.28,-60.5 119.28,-60.5 "/>
<text text-anchor="middle" x="105.78" y="-45.3" font-family="Times,serif" font-size="14.00">Y</text>
<polyline fill="none" stroke="black" points="119.28,-37.5 119.28,-106.5 "/>
<text text-anchor="middle" x="152.28" y="-75.8" font-family="Times,serif" font-size="14.00">$94.u1</text>
<text text-anchor="middle" x="152.28" y="-60.8" font-family="Times,serif" font-size="14.00">NAND</text>
<polyline fill="none" stroke="black" points="185.28,-37.5 185.28,-106.5 "/>
<text text-anchor="middle" x="195.78" y="-68.3" font-family="Times,serif" font-size="14.00"> </text>
</g>
<!-- n1&#45;&gt;c6 -->
<g id="edge1" class="edge">
<title>n1:e&#45;&gt;c6:w</title>
<path fill="none" stroke="black" d="M56.14,-95C68.19,-95 73.46,-95 82.12,-95"/>
<polygon fill="black" stroke="black" points="82.28,-98.5 92.28,-95 82.28,-91.5 82.28,-98.5"/>
</g>
<!-- n1&#45;&gt;c6 -->
<g id="edge2" class="edge">
<title>n1:e&#45;&gt;c6:w</title>
<path fill="none" stroke="black" d="M56.14,-95C71.01,-95 73.08,-80.96 82.36,-74.82"/>
<polygon fill="black" stroke="black" points="83.62,-78.1 92.28,-72 81.7,-71.37 83.62,-78.1"/>
</g>
<!-- n2 -->
<g id="node2" class="node">
<title>n2</title>
<polygon fill="none" stroke="black" points="56.42,-33.54 56.42,-48.46 39.85,-59 16.43,-59 -0.14,-48.46 -0.14,-33.54 16.43,-23 39.85,-23 56.42,-33.54"/>
<text text-anchor="middle" x="28.14" y="-37.3" font-family="Times,serif" font-size="14.00">out</text>
</g>
<!-- n2&#45;&gt;c6 -->
<g id="edge3" class="edge">
<title>n2:e&#45;&gt;c6:w</title>
<path fill="none" stroke="black" d="M56.28,-41C68.7,-41 73.56,-45.59 82.31,-47.82"/>
<polygon fill="black" stroke="black" points="81.94,-51.3 92.28,-49 82.76,-44.35 81.94,-51.3"/>
</g>
</g>
</svg>
